<?xml version="1.0" encoding="iso-8859-1"?>
<!-- Generator: Adobe Illustrator 19.0.0, SVG Export Plug-In . SVG Version: 6.00 Build 0)  -->
<svg xmlns="http://www.w3.org/2000/svg" xmlns:xlink="http://www.w3.org/1999/xlink" version="1.1" id="Layer_1" x="0px" y="0px" viewBox="0 0 512 512" style="enable-background:new 0 0 512 512;" xml:space="preserve" width="512" height="512">
<path d="M434,20c0,11.046-8.954,20-20,20c-33.084,0-60,26.916-60,60v312c0,33.084,26.916,60,60,60c11.046,0,20,8.954,20,20  s-8.954,20-20,20c-32.676,0-61.741-15.755-80-40.066C315.741,496.245,286.676,512,254,512c-11.046,0-20-8.954-20-20s8.954-20,20-20  c33.084,0,60-26.916,60-60V100c0-33.084-26.916-60-60-60c-11.046,0-20-8.954-20-20s8.954-20,20-20c32.676,0,61.741,15.755,80,40.066  C352.259,15.755,381.324,0,414,0C425.046,0,434,8.954,434,20z M492,354c-11.046,0-20,8.954-20,20l0,0c0,11.046,8.954,20,20,20  s20-8.954,20-20l0,0C512,362.954,503.046,354,492,354z M20,354c-11.046,0-20,8.954-20,20l0,0c0,11.046,8.954,20,20,20  s20-8.954,20-20l0,0C40,362.954,31.046,354,20,354z M256,158c11.046,0,20-8.954,20-20v0c0-11.046-8.954-20-20-20s-20,8.954-20,20v0  C236,149.046,244.954,158,256,158z M433,138c0-11.046-8.954-20-20-20s-20,8.954-20,20v0c0,11.046,8.954,20,20,20  S433,149.046,433,138L433,138z M492,118c-11.046,0-20,8.954-20,20v0c0,11.046,8.954,20,20,20s20-8.954,20-20v0  C512,126.954,503.046,118,492,118z M98,118c-11.046,0-20,8.954-20,20v0c0,11.046,8.954,20,20,20s20-8.954,20-20v0  C118,126.954,109.046,118,98,118z M20,118c-11.046,0-20,8.954-20,20v0c0,11.046,8.954,20,20,20s20-8.954,20-20v0  C40,126.954,31.046,118,20,118z M178,118c-11.046,0-20,8.954-20,20v0c0,11.046,8.954,20,20,20s20-8.954,20-20v0  C198,126.954,189.046,118,178,118z M236,374c0,11.046,8.954,20,20,20s20-8.954,20-20l0,0c0-11.046-8.954-20-20-20  S236,362.954,236,374L236,374z M413,354c-11.046,0-20,8.954-20,20l0,0c0,11.046,8.954,20,20,20s20-8.954,20-20l0,0  C433,362.954,424.046,354,413,354z M98,354c-11.046,0-20,8.954-20,20l0,0c0,11.046,8.954,20,20,20s20-8.954,20-20l0,0  C118,362.954,109.046,354,98,354z M178,354c-11.046,0-20,8.954-20,20l0,0c0,11.046,8.954,20,20,20s20-8.954,20-20l0,0  C198,362.954,189.046,354,178,354z M492,276c-11.046,0-20,8.954-20,20v0c0,11.046,8.954,20,20,20s20-8.954,20-20v0  C512,284.954,503.046,276,492,276z M492,198c-11.046,0-20,8.954-20,20v0c0,11.046,8.954,20,20,20s20-8.954,20-20v0  C512,206.954,503.046,198,492,198z M20,276c-11.046,0-20,8.954-20,20v0c0,11.046,8.954,20,20,20s20-8.954,20-20v0  C40,284.954,31.046,276,20,276z M20,198c-11.046,0-20,8.954-20,20v0c0,11.046,8.954,20,20,20s20-8.954,20-20v0  C40,206.954,31.046,198,20,198z"/>















</svg>
