<svg version="1.1" xmlns="http://www.w3.org/2000/svg" x="0px" y="0px" width="177px"
	 height="211.2px" viewBox="0 0 177 211.2" style="enable-background:new 0 0 177 211.2;" >
<style type="text/css">
	.st0{fill:#FF4655;}
</style>
<defs>
</defs>
<path class="st0" d="M131.3,96.8c3.8,1.3,7.2,2.3,10.3,3.7c18.4,8,30.1,21.9,34,41.4c4.6,22.6-3.6,43.7-23,58
	c-10.7,7.9-22.9,11.1-36.2,11.1c-19.1-0.1-38.1,0.3-57.2,0.3c-2.4,0-5.1-1-7.1-2.3c-4-2.7-4.9-6.2-3.5-10.5c1.3-4.1,4.4-6.6,9-6.7
	c10.6-0.2,21.2-0.1,31.8-0.2c10.4,0,20.8,0,31.1-0.1c19-0.2,35.4-16.8,36.4-35.8c1.1-19.4-13.3-35.8-32.1-39.8
	c-0.8-0.2-1.6-0.2-2.5-0.2c-17.7,0-35.4,0-53.1,0c-0.5,0-0.9,0.1-1.9,0.2c0,4,0,7.9,0,11.9c0,4.4,0.1,8.7,0,13.1c0,2.1,0.6,3,2.8,3
	c10.7-0.1,21.4,0,32.1-0.2c1.6,0,3.3-1,4.6-2.1c7.6-6.5,14.6-5.3,20.1-1.6c7.4,5,9.2,13.5,5.5,21.3c-4.2,8.7-17.3,11.5-24.5,5
	c-2.3-2.1-4.5-2.9-7.5-2.9c-14.3,0.1-28.5,0-42.8,0c-6.3,0-9.9-3.5-9.9-9.8c-0.1-15.8-0.1-31.6,0-47.4c0-6.6,2.3-9.5,8.9-9.8
	c10.4-0.5,20.7-0.4,31.1-0.4c23.3,0,40.9-20.5,37.4-43.5c-2.4-16.2-15.2-27.5-29.3-31.2c-3.4-0.9-7-0.8-10.5-0.8
	c-24.8-0.1-49.5-0.3-74.3,0C5.7,20.4-0.1,15.5,0,10.2C0.1,4.6,5.1,0,11.4,0c15.1,0,30.2,0.1,45.3,0.1c10.4,0,20.8-0.2,31.1,0
	c26,0.4,48.7,16.8,56.1,42.7c5.2,18.2,1.5,35.1-10,50.3C133.2,94.1,132.5,95.1,131.3,96.8z M72.3,67.8c1,0,2.1,0.8,2.9,1.5
	c4.6,3.9,9.6,6.3,15.8,4.7c7.1-1.9,12-7.4,12.7-14.4c0.7-6.7-2.8-13-9.3-16.4C90.2,41.1,80.9,40.5,76,46c-2,2.3-4,2.3-6.5,2.4
	c-19.9,0-39.9,0-59.8,0.1c-5,0-8.7,3.3-9.3,8.3c-0.2,2-0.3,4-0.3,6c0,33.3,0.1,66.5,0.1,99.8c0,12.4-0.1,24.8,0.1,37.2
	c0,4,0.6,8.3,4.9,10.1c8.1,3.3,14.6-1.1,14.7-9.8c0.1-7.4,0-14.9,0-22.3c0.1-34.9,0.1-69.8,0.2-104.8c0-1.6,0-3.2,0-5.2
	C38.1,67.7,55.2,67.7,72.3,67.8z"/>
</svg>
