<svg id="Layer_1" data-name="Layer 1" xmlns="http://www.w3.org/2000/svg" width="200" height="200" viewBox="0 0 200 200"><defs><style>.cls-1{fill:#202d51;}.cls-2{fill:#45badb;}.cls-3{fill:#fdac5f;}.cls-4{fill:#fff;}</style></defs><path class="cls-1" d="M75,157.67a9.8,9.8,0,0,1,.62-3.42,9.51,9.51,0,0,1,1.84-3,9,9,0,0,1,2.94-2.17,9.11,9.11,0,0,1,3.91-.81,8.59,8.59,0,0,1,4.51,1.14,7.17,7.17,0,0,1,2.81,3l-2.79,1.95a4.46,4.46,0,0,0-1.25-1.68,5,5,0,0,0-1.67-.88,5.83,5.83,0,0,0-1.71-.26,5,5,0,0,0-2.41.55,5.37,5.37,0,0,0-1.7,1.47,6.43,6.43,0,0,0-1,2,7.66,7.66,0,0,0-.35,2.26,7.38,7.38,0,0,0,.4,2.38,6.5,6.5,0,0,0,1.14,2A5.2,5.2,0,0,0,82,163.64a4.84,4.84,0,0,0,2.25.52,5.59,5.59,0,0,0,1.76-.29,5.2,5.2,0,0,0,1.67-.93,4.68,4.68,0,0,0,1.25-1.68l3,1.76A5.73,5.73,0,0,1,90,165.41a8.87,8.87,0,0,1-2.82,1.49,9.87,9.87,0,0,1-3.1.51,8.06,8.06,0,0,1-3.68-.84,9.54,9.54,0,0,1-2.89-2.23,10.51,10.51,0,0,1-1.9-3.14A9.75,9.75,0,0,1,75,157.67Z"/><path class="cls-1" d="M94.36,167.28v-18.9h8a5.56,5.56,0,0,1,2.41.53,6.13,6.13,0,0,1,1.9,1.44,7,7,0,0,1,1.24,2,6.29,6.29,0,0,1,.44,2.29,6.68,6.68,0,0,1-.72,3,6.13,6.13,0,0,1-2,2.36,5.31,5.31,0,0,1-3.07.9H98v6.34ZM98,157.72h4.26a2,2,0,0,0,1.22-.37,2.43,2.43,0,0,0,.84-1.08,4.05,4.05,0,0,0,.31-1.61,3.51,3.51,0,0,0-.36-1.66,2.7,2.7,0,0,0-.93-1,2.29,2.29,0,0,0-1.24-.36H98Z"/><path class="cls-1" d="M125,151.6h-6v15.68h-3.65V151.6h-6.07v-3.22H125Z"/><path class="cls-2" d="M147.43,60.31v62.3a8.36,8.36,0,0,1-8.33,8.33H60.9a8.36,8.36,0,0,1-8.33-8.33V30.5a8.36,8.36,0,0,1,8.33-8.33h48.73V53.94A6.37,6.37,0,0,0,116,60.31Z"/><polygon class="cls-2" points="144.87 53.37 116.57 53.37 116.57 25.07 144.87 53.37"/><polygon class="cls-3" points="116.57 25.07 144.87 53.37 116.57 53.37 116.57 25.07"/><polygon class="cls-2" points="144.87 53.37 116.57 53.37 116.57 25.07 144.87 53.37"/><path class="cls-4" d="M100,67.41a24,24,0,1,0,24,24A24.12,24.12,0,0,0,100,67.41Zm-2.91,34.94L86.58,91.83l4-4,6.72,6.73,13.49-12.27,3.79,4.16Z"/></svg>