<svg id="Layer_1" data-name="Layer 1" xmlns="http://www.w3.org/2000/svg" width="200" height="200" viewBox="0 0 200 200"><defs><style>.cls-1{fill:#202d51;}.cls-2{fill:#4caf50;}.cls-3{fill:#43a047;}.cls-4{fill:#a5d6a7;}.cls-5{fill:#fafafa;}.cls-6{fill:#f5f5f5;}</style></defs><path class="cls-1" d="M39.46,157.46v8.21H36.75l-.15-1.78A5.67,5.67,0,0,1,32,166a7.39,7.39,0,0,1-7.78-7.44,7.51,7.51,0,0,1,7.8-7.74c3.59,0,6.69,2,7.31,5.48H35.48a3.34,3.34,0,0,0-3.39-2.19,4.29,4.29,0,0,0,0,8.58,4,4,0,0,0,3.72-2.28l-4.19,0v-2.86Z"/><path class="cls-1" d="M52.81,160.47A5.37,5.37,0,0,1,47.09,166a5.5,5.5,0,1,1,0-11A5.4,5.4,0,0,1,52.81,160.47Zm-3.27,0a2.46,2.46,0,1,0-2.45,2.58A2.41,2.41,0,0,0,49.54,160.47Z"/><path class="cls-1" d="M65.68,160.47A5.37,5.37,0,0,1,60,166a5.5,5.5,0,1,1,0-11A5.4,5.4,0,0,1,65.68,160.47Zm-3.27,0A2.46,2.46,0,1,0,60,163.05,2.41,2.41,0,0,0,62.41,160.47Z"/><path class="cls-1" d="M78.45,155.24v10.49c0,3.27-2.33,5.16-5.59,5.16s-5.46-1.8-5.64-4.51h3.44a2,2,0,0,0,2.2,1.57A2,2,0,0,0,75,165.8v-1.25a5.23,5.23,0,0,1-2.86.75A5.17,5.17,0,1,1,75,155.76v-.52ZM75,161.54v-2.75a2.68,2.68,0,0,0-2.15-1,2.35,2.35,0,0,0-2.47,2.45,2.41,2.41,0,0,0,2.47,2.26A2.71,2.71,0,0,0,75,161.54Z"/><path class="cls-1" d="M84.31,150.41v15.26h-3.5V150.41Z"/><path class="cls-1" d="M96.93,161.28H89.38a2.25,2.25,0,0,0,2.37,1.92,1.82,1.82,0,0,0,1.55-.56h3.52a4.93,4.93,0,0,1-5,3.31,5.35,5.35,0,0,1-5.69-5.5A5.25,5.25,0,0,1,91.56,155C95.23,155,97.45,157.59,96.93,161.28Zm-7.5-2h4.34a1.91,1.91,0,0,0-2.13-1.74A2.13,2.13,0,0,0,89.43,159.28Z"/><path class="cls-1" d="M116.75,155.59h-3.66a2.12,2.12,0,0,0-2.41-1.85c-1.29,0-2.13.49-2.13,1.44s.61,1.2,1.77,1.44l2,.43c2.69.56,4.41,1.65,4.41,4.17,0,2.92-2.41,4.73-6.07,4.73-3.29,0-6.25-1.57-6.6-5.18h3.66c.23,1.29,1.33,2.1,3,2.1,1.29,0,2.07-.49,2.07-1.31,0-.51-.28-1.05-1.55-1.29l-2.41-.51c-2.88-.63-4.24-1.94-4.24-4.26,0-2.92,2.37-4.73,5.81-4.73C112.85,150.77,116.38,151.65,116.75,155.59Z"/><path class="cls-1" d="M129.6,159.71v6h-3.49v-5.4c0-1.48-.75-2.15-1.91-2.15a2.64,2.64,0,0,0-1.89,1v6.56h-3.5V150.41h3.5v5.52a4.62,4.62,0,0,1,2.86-1C127.79,155,129.6,156.75,129.6,159.71Z"/><path class="cls-1" d="M142.17,161.28h-7.55A2.25,2.25,0,0,0,137,163.2a1.82,1.82,0,0,0,1.55-.56h3.52a4.93,4.93,0,0,1-5,3.31,5.35,5.35,0,0,1-5.69-5.5A5.25,5.25,0,0,1,136.8,155C140.47,155,142.69,157.59,142.17,161.28Zm-7.5-2H139a1.91,1.91,0,0,0-2.13-1.74A2.13,2.13,0,0,0,134.67,159.28Z"/><path class="cls-1" d="M154.48,161.28h-7.54a2.23,2.23,0,0,0,2.36,1.92,1.8,1.8,0,0,0,1.55-.56h3.53a4.94,4.94,0,0,1-5,3.31,5.36,5.36,0,0,1-5.7-5.5,5.26,5.26,0,0,1,5.44-5.49C152.79,155,155,157.59,154.48,161.28Zm-7.5-2h4.34a1.9,1.9,0,0,0-2.12-1.74A2.14,2.14,0,0,0,147,159.28Z"/><path class="cls-1" d="M164.82,165.43A7.45,7.45,0,0,1,162,166a4.3,4.3,0,0,1-4.56-4.67v-3.05h-2v-3h2V151.7H161v3.54h3.55v3H161v3a1.44,1.44,0,0,0,1.64,1.57,5.15,5.15,0,0,0,1.84-.43Z"/><path class="cls-1" d="M170.94,163.39c.93,0,1.51-.26,1.51-.71s-.41-.62-1.1-.73l-2.1-.37c-1.79-.3-3.06-1.31-3.06-3.13,0-2.2,1.87-3.49,4.65-3.49,2.47,0,4.71.84,4.86,3.59h-3.08c-.06-.77-.81-1.11-1.78-1.11s-1.31.32-1.31.71.25.68,1.09.83l1.94.33c1.93.36,3.24,1.31,3.24,3.16,0,2.4-2.15,3.48-4.88,3.48s-4.9-1.1-5.13-3.87l3.09,0C169,163,169.85,163.39,170.94,163.39Z"/><path class="cls-2" d="M138.17,59V130.8a4.26,4.26,0,0,1-4.26,4.26H65.85a4.25,4.25,0,0,1-4.25-4.26V33.37a4.25,4.25,0,0,1,4.25-4.26h42.54Z"/><path class="cls-3" d="M131.79,52.56V130.8a4.26,4.26,0,0,1-4.26,4.26h6.38a4.26,4.26,0,0,0,4.26-4.26V59Z"/><path class="cls-4" d="M138.17,59H112.64a4.25,4.25,0,0,1-4.25-4.26V29.11Z"/><path class="cls-5" d="M121,73.34H78.78a3.2,3.2,0,0,0-3.2,3.2v40.51a3.19,3.19,0,0,0,3.2,3.19H121a3.2,3.2,0,0,0,3.2-3.19V76.54a3.2,3.2,0,0,0-3.2-3.2ZM82,93.24H96.68v7.11H82Zm21.11,0h14.71v7.11H103.08Zm14.71-6.4H103.08v-7.1h14.71Zm-21.11-7.1v7.1H82v-7.1ZM82,106.74H96.68v7.11H82Zm21.11,7.11v-7.11h14.71v7.11Z"/><path class="cls-6" d="M121,73.34h-6.4a3.2,3.2,0,0,1,3.2,3.2v40.51a3.19,3.19,0,0,1-3.2,3.19H121a3.2,3.2,0,0,0,3.2-3.19V76.54a3.2,3.2,0,0,0-3.2-3.2Z"/></svg>