<svg xmlns="http://www.w3.org/2000/svg" data-name="Layer 1" viewBox="0 0 200 200"><defs/><text fill="#202d51" font-family="Campton-Bold,Campton" font-size="21.5" font-weight="700" transform="translate(23 169)">Google Sheets</text><path fill="#4caf50" d="M138 62v72a4 4 0 01-4 5H66a4 4 0 01-4-5V37a4 4 0 014-4h43z"/><path fill="#43a047" d="M132 56v78a4 4 0 01-4 5h6a4 4 0 004-5V62z"/><path fill="#a5d6a7" d="M138 62h-25a4 4 0 01-4-4V33z"/><path fill="#fafafa" d="M121 77H79a3 3 0 00-3 3v41a3 3 0 003 3h42a3 3 0 003-3V80a3 3 0 00-3-3zM82 97h15v7H82zm21 0h15v7h-15zm15-7h-15v-7h15zm-21-7v7H82v-7zm-15 27h15v7H82zm21 7v-7h15v7z"/><path fill="#f5f5f5" d="M121 77h-6a3 3 0 013 3v41a3 3 0 01-3 3h6a3 3 0 003-3V80a3 3 0 00-3-3z"/></svg>