<svg xmlns="http://www.w3.org/2000/svg" id="Layer_1" data-name="Layer 1" viewBox="0 0 200 200">
  <defs/>
  <defs>
    <style>
      .cls-1{fill:#fd5201}
    </style>
  </defs>
  <path d="M117.4 56.3l-1.7 4.8-10.2 28a4.9 4.9 0 01-4.9 3.5 16.8 16.8 0 01-2.4-.2 4.8 4.8 0 01-3.8-2.7 28.4 28.4 0 01-1.4-3.2L82.6 59.1a.6.6 0 00-.3-.3v30a6.3 6.3 0 01-.1 1.4 3.6 3.6 0 01-3 2.9 10 10 0 01-4 0c-2.3-.5-2.8-1.7-3-3.6V45.7a10 10 0 01.2-2 4.1 4.1 0 012.3-3A9.6 9.6 0 0178 40a12.7 12.7 0 014.6.3 6.3 6.3 0 014.4 4.3l3.9 11 8.8 25.1c0 .3.2.6.4 1l1-2.8 11.1-33 .6-1.7a6.2 6.2 0 014.2-3.8 13.7 13.7 0 017.3 0 7.2 7.2 0 011 .4 3.8 3.8 0 012.4 3.6v44.2a5.4 5.4 0 01-.3 2.2 3.5 3.5 0 01-2.6 2.1 10.5 10.5 0 01-3.8.2 3.8 3.8 0 01-3.5-4V56.3zM100 115.7l1.4-1.3a18.6 18.6 0 0112-4.2h12a14.2 14.2 0 002.4-.2 8.5 8.5 0 006-4.5l.5-.9a3.5 3.5 0 013.9-1.7 8.2 8.2 0 013.8 1.8 4 4 0 011.1 5 15.6 15.6 0 01-3.2 4.7 18.6 18.6 0 01-11.5 5.8 22 22 0 01-2.7.2h-12a9 9 0 00-8.8 6.5 3 3 0 01-1.7 2 5.8 5.8 0 01-1.5.5 8.1 8.1 0 01-4.5-.3 3.3 3.3 0 01-2.1-2.3 8.8 8.8 0 00-8.4-6.4h-13a18.2 18.2 0 01-11.2-3.8 18.8 18.8 0 01-5.3-6.3 5 5 0 01-.7-2.7 4 4 0 011.7-3 8.3 8.3 0 013.8-1.7 3.4 3.4 0 013.4 1.4 10.7 10.7 0 01.8 1.3 8.2 8.2 0 007.2 4.5h13.8a18.6 18.6 0 0111.9 4.9l.7.7zM64.6 159.9h-4.3v-8.7l-3.9 6H54l-3.9-6v8.7H46v-17.4H49l6.1 9.3 6.2-9.3h3.2zM80.7 147.5v12.4h-4.2v-.7a6 6 0 01-3.4 1 6.5 6.5 0 010-13 6 6 0 013.4 1v-.6zm-4.2 8v-3.7a3.2 3.2 0 00-2.5-1.1 3 3 0 000 6 3.2 3.2 0 002.5-1.1zM83.5 143.2a2.4 2.4 0 112.4 2.4 2.3 2.3 0 01-2.4-2.4zm4.5 4.3v12.4h-4.2v-12.4zM95.3 141.8v18h-4.1v-18zM112.6 148.9c0 4-3 6.5-7.7 6.5h-2.3v4.5h-4.3v-17.4h7c4.5 0 7.3 2.5 7.3 6.4zm-4.3 0c0-1.6-1.2-2.6-3.1-2.6h-2.6v5.4h2.6c1.9 0 3.1-1.1 3.1-2.8zM127.3 153.7c0 3.8-2.8 6.5-6.8 6.5s-6.8-2.7-6.8-6.5 2.9-6.5 6.8-6.5a6.4 6.4 0 016.8 6.5zm-3.8 0a3 3 0 10-3 3 2.9 2.9 0 003-3zM141.9 154.7h-9a2.7 2.7 0 002.8 2.2 2.2 2.2 0 001.8-.6h4.2c-.7 2.4-3 3.9-6 3.9-4 0-6.7-2.7-6.7-6.5a6.2 6.2 0 016.4-6.5c4.4 0 7 3 6.5 7.5zm-8.9-2.4h5.2a2.3 2.3 0 00-2.6-2 2.5 2.5 0 00-2.6 2zM154.1 159.6a8.7 8.7 0 01-3.3.6c-3.4 0-5.4-2.2-5.4-5.5V151H143v-3.5h2.4v-4.3h4.2v4.2h4.2v3.6h-4.2v3.5a1.7 1.7 0 001.9 1.9 6 6 0 002.2-.5z" class="cls-1"/>
</svg>
