<svg id="Layer_1" data-name="Layer 1" xmlns="http://www.w3.org/2000/svg" width="200" height="200" viewBox="0 0 200 200"><defs><style>.cls-1{fill:#202d51;}.cls-2{fill:#664f44;}.cls-3{fill:#132134;}.cls-4{fill:#90694c;}.cls-5{fill:#2f83c1;}.cls-6{fill:#fce9cd;}.cls-7{fill:#4d9ed7;}.cls-8{fill:#fff;}.cls-9{fill:#f2d2ac;}.cls-10{fill:#e9b784;}.cls-11{fill:#ffd250;}</style></defs><path class="cls-1" d="M61.82,167.39H58.1v-7.5L54.78,165v0H52.71v0l-3.35-5.17,0,7.55H45.67v-15h2.77l5.3,8,5.3-8h2.78Z"/><path class="cls-1" d="M75.65,156.72v10.67H72.09v-.57a5.1,5.1,0,0,1-2.93.86,5.63,5.63,0,0,1,0-11.25,5.1,5.1,0,0,1,2.93.84v-.55Zm-3.56,7v-3.3a2.79,2.79,0,0,0-2.2-.94,2.6,2.6,0,0,0,0,5.19A2.77,2.77,0,0,0,72.09,163.69Z"/><path class="cls-1" d="M78.07,153.05a2.09,2.09,0,1,1,2.09,2A2,2,0,0,1,78.07,153.05Zm3.9,3.67v10.67H78.4V156.72Z"/><path class="cls-1" d="M88.28,151.77v15.62H84.69V151.77Z"/><path class="cls-1" d="M98.07,163h3.37A5.23,5.23,0,0,1,96,167.68a5.63,5.63,0,1,1,0-11.25,5.23,5.23,0,0,1,5.48,4.67H98.07A2,2,0,0,0,96,159.45a2.61,2.61,0,0,0,0,5.21A2,2,0,0,0,98.07,163Z"/><path class="cls-1" d="M114.35,161.3v6.09h-3.56v-5.52c0-1.52-.77-2.2-2-2.2a2.69,2.69,0,0,0-1.94,1v6.71H103.3V151.77h3.59v5.65a4.75,4.75,0,0,1,2.93-1C112.5,156.43,114.35,158.26,114.35,161.3Z"/><path class="cls-1" d="M116.64,153.05a2.09,2.09,0,1,1,2.09,2A2,2,0,0,1,116.64,153.05Zm3.89,3.67v10.67H117V156.72Z"/><path class="cls-1" d="M141,161.21v6.18h-3.56v-5.74c0-1.45-.75-2-1.76-2a2.22,2.22,0,0,0-1.76.81c0,.2,0,.4,0,.62v6.29h-3.57v-5.85c0-1.45-.74-1.87-1.65-1.87a2.26,2.26,0,0,0-1.84.9v6.82h-3.59V156.72h3.59v.66a4.57,4.57,0,0,1,6,.37,5.16,5.16,0,0,1,3.54-1.32C139.17,156.43,141,158.13,141,161.21Z"/><path class="cls-1" d="M155.05,162a5.41,5.41,0,0,1-5.3,5.57,5.5,5.5,0,0,1-2.91-.79v5.68h-3.58V156.72h3.58v.55a5.5,5.5,0,0,1,2.91-.79A5.39,5.39,0,0,1,155.05,162Zm-3.5,0a2.54,2.54,0,0,0-2.51-2.66,2.79,2.79,0,0,0-2.2,1v3.35a2.79,2.79,0,0,0,2.2,1A2.52,2.52,0,0,0,151.55,162Z"/><path class="cls-2" d="M148.82,112.68c0-.18,0-.37,0-.55s0-.24,0-.33a5.67,5.67,0,0,0-.19-.79,4.46,4.46,0,0,0-.83-1.43,4.74,4.74,0,0,0-1.21-1,6.2,6.2,0,0,0-1.3-.46c-.14,0-.23,0-.32,0a6.82,6.82,0,0,0-.56-4.72l.1-.09c.55-.56,1-1.07,1.43-1.58l.1-.09a5.28,5.28,0,0,0,.64-1.35,4,4,0,0,0,.19-1v-.88a6.77,6.77,0,0,0-.6-2.54,6.24,6.24,0,0,0-1-1.44,5.65,5.65,0,0,0-1.53-1.21s-.09,0-.13-.09a23.32,23.32,0,0,0-3.9-4.31c-.65-.55-1.25-1-1.76-1.39l-1.16-.83a7.5,7.5,0,0,0-1.15-.74,11.63,11.63,0,0,1-1-.65,3.39,3.39,0,0,0-.27-.23.33.33,0,0,0,0-.14,2.15,2.15,0,0,1-.05-.65c0-.46,0-1.16.05-2.09.09-1.48.23-3.47.42-6.2,0-.88,0-1.72,0-2.46a17.69,17.69,0,0,0-.46-3.38c-.05-.23-.14-.47-.19-.7a1.24,1.24,0,0,0-.14-.37,2.53,2.53,0,0,0-.18-.46c0-.09,0-.19-.14-.28a5.32,5.32,0,0,0-.32-.69l-.05-.05-.05-.14,0-.09a6.84,6.84,0,0,0-.79-1.11,16.92,16.92,0,0,0-.79-2.65,15,15,0,0,0-1.53-3,7.92,7.92,0,0,0-.79-1l.1-.09a47.47,47.47,0,0,0,6-8c4.78-8.29,3.2-13.34,1-16.12l0-.1-.05-.09a13.33,13.33,0,0,0-8.43-4.17c-7.28-.93-15.52,2.69-17.7,3.71l-4-4.36a8.41,8.41,0,0,0-1.15-1,12.81,12.81,0,0,0-1.35-.78,10.53,10.53,0,0,0-3.06-.84,19.75,19.75,0,0,0-7.36.7A51.16,51.16,0,0,0,80,34.19,92,92,0,0,0,65.55,45,86.27,86.27,0,0,0,51.38,61.3,48.5,48.5,0,0,0,47.11,69a26.72,26.72,0,0,0-2,7,12.88,12.88,0,0,0,.14,4.41,7.59,7.59,0,0,0,.61,1.71A7.36,7.36,0,0,0,47.07,84l4.12,4.31.46.46,0,0-.14.28a2.39,2.39,0,0,1-.23.37l-.14.28c-.05.14-.14.27-.19.41l-.14.28c0,.14-.14.28-.18.42a.58.58,0,0,0-.09.28l-.14.41c0,.1,0,.19-.1.28s-.09.28-.14.46,0,.1,0,.14,0,.1,0,.14-.09.33-.14.47,0,.18,0,.27-.05.14-.05.19,0,.18,0,.28,0,.18,0,.28-.05.37-.09.6a.32.32,0,0,1,0,.18v0c0,.14,0,.28,0,.37s0,.42,0,.6v2.32a.7.7,0,0,0,0,.28,1.08,1.08,0,0,0,0,.37V99c0,.09,0,.23,0,.32s0,.19,0,.33a.15.15,0,0,0,.05.13s0,.14,0,.19V100a1.74,1.74,0,0,0,.1.37s0,0,0,.1a.45.45,0,0,1,0,.23l.05.09c0,.05,0,.05,0,.09l0,.1v.13s0,0,0,.1l.05.09c0,.09,0,.14,0,.23s0,.19.09.37v0s0,0,0,.09.09.24.09.28a1.81,1.81,0,0,1,.14.37l0,0c0,.09,0,.19.1.23l0,.09s0,.1,0,.14a.41.41,0,0,0,.09.19l.05.09c0,.05,0,.14.09.19a.16.16,0,0,1,.05.14c0,.09.09.18.14.32l0,0s0,.09.1.14,0,.13.09.18a1,1,0,0,1,.14.28l0,0c.05,0,.05.1.1.14s.09.14.09.19a1.16,1.16,0,0,1,.14.23v0s0,.09.09.14a.56.56,0,0,0,.14.18s.09.14.19.28.09.09.09.14a.45.45,0,0,0,.14.18,1.53,1.53,0,0,1,.14.24s.09.13.13.18a.44.44,0,0,0,.19.19l.14.14.05,0c.09.09.13.19.23.28l.09.09.14.14.28.28.09.09.14.14,0,0a1.65,1.65,0,0,1,.33.32l.05,0s.09,0,.13.14.28.23.42.37l.09,0,0,0,.09,0c.14.09.23.18.37.27l0,0a.14.14,0,0,0,.09,0l.1.09c.09.09.18.14.27.23l.1,0,.09.09,0,0c.09,0,.23.14.32.18a.24.24,0,0,0,.19.1l.09,0,0,0h0a2.8,2.8,0,0,1,.46.28l.1,0,.55.28h.05l.09,0,.28.14c.05,0,.09,0,.14,0s.09,0,.18.09h0a.63.63,0,0,0,.28.1h0l.33.14h0l.09,0s.09,0,.14,0h0l.47.14h0a3.6,3.6,0,0,0,.7.18h0l.61.14h.18a2.18,2.18,0,0,0,.56.09h.18c.14,0,.23,0,.37,0s0,.09,0,.14c.32.88.65,1.76,1,2.59C69.82,130.2,85,142,102.25,144.14s35.77-9.36,43.28-24.88c.32-.6.6-1.16.88-1.76a8.85,8.85,0,0,0,1.71-2.41,3,3,0,0,0,.7-2.41m-96-6h0"/><path class="cls-3" d="M134,36.88a9.1,9.1,0,0,0-2.88-2.13,2.11,2.11,0,0,0-.6-.19c-.09,0-.18-.14-.28-.18a12.28,12.28,0,0,0-2.92-.75c-5-.64-10.74,1.21-14,2.51-.18.09-.37.14-.55.23s-.56.23-.84.37c-.46.18-.92.42-1.43.65a2.34,2.34,0,0,0-.24.09l-.88-1L109,36l-.37-.42-.14-.18-3.39-3.9-.27-.32-.37-.42h0l-1,.23-1.12.24a8.6,8.6,0,0,0-2.17-.61,17,17,0,0,0-6.21.61,39.85,39.85,0,0,0-8,3.1A82.58,82.58,0,0,0,67.55,47.26c-2.18,1.94-4.17,4-6,6s-3.43,3.94-4.91,5.84a54.31,54.31,0,0,0-6.76,11.17A23.27,23.27,0,0,0,48,76.4a8.89,8.89,0,0,0,.09,3.38c.1.33.19.56.28.84a4.91,4.91,0,0,0,.88,1.43L53,86l.42.42,0,0a1.45,1.45,0,0,1,.37-.37l0,0,.14-.14c.1-.14.23-.23.33-.37a.77.77,0,0,1,.23-.19c.09,0,.14-.14.23-.18l.09-.1c.1,0,.14-.14.24-.18s.23-.19.32-.28.14-.09.18-.14h0c.14-.09.23-.18.37-.28a.73.73,0,0,0,.23-.18c.14-.09.24-.19.37-.28l.24-.14a2.12,2.12,0,0,1,.41-.23c.1-.05.14-.09.23-.14s.28-.14.42-.23l.23-.14.1,0c.14,0,.23-.14.37-.18s.14,0,.18-.09a1.48,1.48,0,0,1,.33-.14l.27-.14.1-.05.69-.28a2.18,2.18,0,0,0,.23-.09,2.34,2.34,0,0,1,.24-.09l.09,0s.09,0,.14,0,.18,0,.32-.09h.09c.14,0,.24,0,.37-.09s.24,0,.33-.09.28,0,.42-.1a1,1,0,0,1,.18,0,.27.27,0,0,0,.19,0,1.43,1.43,0,0,1,.41,0c.14,0,.24-.05.37-.05s.19,0,.28,0h.37c.47,0,1,0,1.58,0H66a15.15,15.15,0,0,1,1.85.28c.14,0,.33,0,.47.09s0-.14.09-.19c.37-.6.7-1.25,1.07-1.85A70.4,70.4,0,0,1,76,70.1c.78-.93,1.57-1.76,2.36-2.59a61.69,61.69,0,0,1,9.54-8.11c.65-.47,1.35-.88,1.95-1.3.88-.56,1.71-1,2.5-1.48s1.25-.7,1.86-1c1-.51,1.85-.92,2.64-1.25l.69-.28c.33-.13.65-.27.93-.37a4.59,4.59,0,0,0-.74,0h-.93a4.59,4.59,0,0,0-.74,0l-1.48.14c-.19,0-.33,0-.51.1a23.11,23.11,0,0,1,3.66-1.49c.78-.23,1.57-.41,2.31-.55a21.45,21.45,0,0,1,2.88-.37c.6,0,1.15,0,1.66,0s1,0,1.44,0a15,15,0,0,1,2.46.32,4.54,4.54,0,0,0-.79-.79,8,8,0,0,0-1.72-.92c-.23-.1-.41-.14-.6-.24a1.77,1.77,0,0,0-.37-.09,5.49,5.49,0,0,1,.74-.09c.28,0,.51,0,.79-.09a22.8,22.8,0,0,1,5.56.23,16.46,16.46,0,0,1,2.78.74,4.29,4.29,0,0,0-1-1.25c-.28-.23-.6-.46-.88-.65.6.14,1.11.28,1.67.46a26.94,26.94,0,0,1,3.47,1.35L119,51c.09,0,.14.1.18.1.84.46,1.3.78,1.3.78a3.53,3.53,0,0,0-.79-1.39c-.09-.09-.18-.23-.27-.32h0s.09,0,.19,0a.7.7,0,0,1,.23.09,17.13,17.13,0,0,1,1.57.69s0,0,.1,0l.27.14a4.63,4.63,0,0,1,.7.42l.69.41c.14.1.24.14.38.23s.51.38.74.61.51.46.74.69l.14.14a6.47,6.47,0,0,1,.51.56,13.21,13.21,0,0,1,.88,1.2,9.66,9.66,0,0,1,.78,1.72s0,.09,0,.09.42-.42.74-.79c2.69-3.15,10.75-13.34,5.89-19.55"/><path class="cls-4" d="M146,113a2.4,2.4,0,0,0-.28-1.35s0-.09,0-.09l0,0-.14-.14a1.91,1.91,0,0,0-.33-.27A.7.7,0,0,0,145,111a2.64,2.64,0,0,0-.79-.23,3.45,3.45,0,0,0-.74,0h-.37v.09s.05.09.05.19,0,.09,0,.09.09.37.13.56a.45.45,0,0,1,0,.14v0a7.24,7.24,0,0,1-1.35,2,3.59,3.59,0,0,1-.46.51c-2.32,2.41-7.32,5.8-17.88,7.7a36.63,36.63,0,0,1-9.69.18c-4.17-.51-7.27-1.85-8.76-3.66-.13-.14-.23-.32-.37-.46s-.14-.24-.23-.37,0-.1-.09-.14a7.37,7.37,0,0,1-.88-3.48,6.53,6.53,0,0,1,1.2-3.8,4.51,4.51,0,0,1,2.37-1.76,3.84,3.84,0,0,1,1.48-.18,1.9,1.9,0,0,1,.42,0c.32,0,.83.1,1.43.19a.33.33,0,0,1,.19,0,48.71,48.71,0,0,0,8.94.33A39.16,39.16,0,0,0,144,98.83v0a3.57,3.57,0,0,0-.83-2.64,4.79,4.79,0,0,0-.46-.42c-.1-.09-.24-.14-.33-.23a1.82,1.82,0,0,1-.32-.18l-.42-.28v0a1.07,1.07,0,0,0-.19-.28,22.93,22.93,0,0,0-6.3-6,6.11,6.11,0,0,0-.92-.6c-2.55-1.58-2.92-2.09-2.69-6.3.09-1.53.23-3.52.42-6.26,0-.37,0-.69,0-1V73.16c0-.23,0-.47,0-.65a.56.56,0,0,0,0-.28c-.05-.23-.05-.46-.09-.69s-.05-.24-.05-.33a1.25,1.25,0,0,0-.09-.37c0-.09,0-.23-.1-.32a1.58,1.58,0,0,1-.09-.42s0-.09,0-.14-.05-.09-.05-.14v0l0-.14a.83.83,0,0,1-.09-.28v0l-.05-.09,0-.09a5.06,5.06,0,0,0-.23-.51l0-.14c-.09-.14-.19-.33-.28-.46l0,0-.05,0c-.09-.09-.14-.18-.23-.28l-.1-.13a1.91,1.91,0,0,0-.27-.33v-.37c-.05-.18-.1-.42-.14-.65,0,0,0-.14,0-.18v0c0-.09,0-.14,0-.23a3.08,3.08,0,0,0-.19-.56s0-.14,0-.18l-.14-.42c0-.09,0-.19-.09-.23a1.52,1.52,0,0,0-.18-.42l-.14-.28c0-.14-.14-.27-.19-.41l-.14-.28c-.09-.14-.14-.28-.23-.42l-.14-.28c-.09-.14-.18-.27-.28-.46s-.09-.14-.13-.23a2.31,2.31,0,0,1-.14-.19c-.14-.14-.24-.28-.37-.41l-.1,0a4.09,4.09,0,0,0-.51-.51l0,0a.76.76,0,0,1-.23-.18h0l-.23-.14,0,0c-.09,0-.23-.14-.42-.23,0,0-.13,0-.23-.09-.41-.14-.92-.33-1.57-.51a.16.16,0,0,1-.14,0,13.85,13.85,0,0,0-1.76-.37c-.23,0-.42,0-.65-.09a.88.88,0,0,1-.33,0h-.13c-.51,0-1-.09-1.49-.09h0a8.45,8.45,0,0,0-1.9.19,3.22,3.22,0,0,1,.92-.75c.51-.27,1-.46,1-.46a6,6,0,0,0-.84.09c-.09,0-.18.05-.28.05a.26.26,0,0,0-.18,0h0a.2.2,0,0,0-.14,0,25.39,25.39,0,0,0-3.61,1.16l-.28.14h0a.42.42,0,0,0-.24.05,4.06,4.06,0,0,1,2-1.9A3.27,3.27,0,0,1,116,57s0,0,.09-.05.18,0,.23-.09a.76.76,0,0,1,.23-.05h-.74a11.3,11.3,0,0,0-4.22,1.39,19,19,0,0,0-2.22,1.48,1.78,1.78,0,0,1-.51.1c-1.76.37-3.75.83-5.84,1.48-.78.23-1.57.51-2.36.79l-1.85.69-1.35.56a31.9,31.9,0,0,0-9,5.88l-.28.28-.7.7-.27.27a4.51,4.51,0,0,1-.33.38,17.4,17.4,0,0,0-1.43,1.8c-.33.47-.65,1-.93,1.48l0,0a19.19,19.19,0,0,0-1.57,3.43c-.23.6-.42,1.25-.61,1.9,0,.19-.09.32-.13.51l0,.09a17.14,17.14,0,0,0-.42,2.18c0,.14,0,.28,0,.46a8.35,8.35,0,0,0-.1,1.16,9.57,9.57,0,0,0,0,1.07v1.43c0,.42,0,.84,0,1.25v0a12.11,12.11,0,0,0,.1,1.3c0,.18,0,.37,0,.55v.14a.85.85,0,0,0,.05.33c0,.46.14,1,.18,1.48,0,.14,0,.28,0,.42.09.41.14.88.23,1.29a6.94,6.94,0,0,1,0-1.39c0-.18,0-.41,0-.6a6.48,6.48,0,0,1,.33-1.53l.14-.41s0-.1.09-.19a5.11,5.11,0,0,1,.37-.74c.05.19.05.37.09.51v2.46a33.13,33.13,0,0,0,.51,5.09s0-2.92.56-3.29a57.48,57.48,0,0,0,1.67,7.51,2.31,2.31,0,0,0,.32.6v-.56l-.09-3V97.3c.6,1.25,1.29,2.5,2.08,3.84.23.38.42.75.65,1.12A16.22,16.22,0,0,0,85,107.68c-.14.37-.33.74-.46,1.11s-.14.42-.24.65c0,0,0,.14,0,.18s-.1.33-.14.47,0,.14,0,.23-.09.32-.14.46,0,.14,0,.23l-.14.7a3.28,3.28,0,0,0-.1.69.51.51,0,0,1,0,.24c0,.18,0,.32,0,.51a.63.63,0,0,1,0,.27c0,.19,0,.33,0,.51v1.62a2.68,2.68,0,0,0,0,.61v.14a4.24,4.24,0,0,0,.09.74.47.47,0,0,0,0,.23,1.92,1.92,0,0,0,.1.51c0,.09,0,.18,0,.28s0,.32.1.46,0,.19,0,.28a1.3,1.3,0,0,1,.1.46c0,.09,0,.19.09.33s.09.32.14.46,0,.18.09.28.09.32.14.46.05.19.09.28.14.37.19.51a2.18,2.18,0,0,0,.09.23l.69,1.53c0,.09.1.14.14.23l.28.56a.89.89,0,0,0,.19.27c.09.14.18.33.27.47s.14.18.19.28a3.86,3.86,0,0,0,.32.46,1.77,1.77,0,0,1,.24.32l.32.47a1.77,1.77,0,0,1,.23.32c.14.14.23.33.37.46s.14.19.23.28a3.69,3.69,0,0,0,.47.51l.23.23c.23.24.46.51.69.75a5.72,5.72,0,0,1-.32-.56.34.34,0,0,1-.09-.23l-.14-.28a2.52,2.52,0,0,1-.14-.32,7.76,7.76,0,0,1-.65-3.34l.42.56c.14.32.37.74.6,1.2a2,2,0,0,1,.23.46c.37.65.74,1.39,1.21,2.09.55.88,1.11,1.71,1.71,2.5a17.37,17.37,0,0,1-.93-2.46,1.65,1.65,0,0,1,0-.64s.09.14.18.18a.85.85,0,0,0,.19.19,6.3,6.3,0,0,0,.42.55l.09.1c.09.09.14.23.23.32a2.92,2.92,0,0,0,.32.42,41.11,41.11,0,0,0,3.25,3.8,5,5,0,0,0,.79.6l-1.35-2.41c3.06,2.5,15.76,5.7,28.22,2.13a32.59,32.59,0,0,0,4.49-1.62c.88-.37,1.76-.84,2.65-1.3l.13-.09c.61-.33,1.21-.7,1.81-1.07s.93-.6,1.34-.88c.75-.51,1.49-1.06,2.23-1.67.05,0,.09-.09.14-.09a25.68,25.68,0,0,0,2-1.9,27.28,27.28,0,0,0,2.22-2.64l.05,0a4.25,4.25,0,0,0,.46-.64l0,0,.14-.23.65-.93c0-.09.09-.14.14-.23a2.86,2.86,0,0,1,.32-.51l.23-.37a1.46,1.46,0,0,0,.23-.42c.14-.23.28-.51.42-.74l.14-.28.28-.55.14-.28,0-.09c.1-.24.24-.47.33-.7v0a9.86,9.86,0,0,0,1-1.06c.05-.05.09-.09.09-.14A7.63,7.63,0,0,0,146,113m-74.55-9a.33.33,0,0,0,0-.19,21.57,21.57,0,0,1-.33-2.45v-.19c-.13,0-.27.23-.46.46a1.69,1.69,0,0,0-.18.33,15,15,0,0,0-.79,1.9,10.38,10.38,0,0,0,.09-1.11v-.14c0-.37.09-.79.14-1.16v-.14a12.54,12.54,0,0,1,.23-1.3.32.32,0,0,1,0-.18v0a.19.19,0,0,1,0-.14c0-.09,0-.14,0-.23,0-.32.14-.65.19-1s.09-.56.13-.79v-.09s0-.1.05-.1v-.09s0-.14,0-.18a.18.18,0,0,1,0-.14,1.4,1.4,0,0,1,.05-.23s0-.14,0-.19a2.07,2.07,0,0,1,0-.23.16.16,0,0,1,.05-.14s0-.09,0-.09,0-.14,0-.19v-.14l-.09.09c-.09,0-.14.14-.23.19l-.1.09a1.78,1.78,0,0,0-.23.28l0,0-.28.41,0,0s0,0,0,.09l-.14.28v.09c0,.14-.14.28-.19.42-.14.37-.28.74-.37,1.07-.05.09-.05.23-.09.27a3.26,3.26,0,0,0-.09.42v0a1.17,1.17,0,0,1,0-.37c0-.23,0-.51,0-.74a2.42,2.42,0,0,1,.09-.6.27.27,0,0,1,0-.19c0-.09,0-.18,0-.28s.05-.18.05-.27v-.14c0-.1,0-.23,0-.33v-.32a.19.19,0,0,1,0-.14,1.59,1.59,0,0,0,.1-.46v0c0-.09,0-.23.09-.32v0c0-.23.14-.46.18-.7v-.09a.16.16,0,0,1,0-.14c.09-.37.23-.74.32-1.06v0c.1-.28.24-.6.33-.88v0c0-.14.09-.23.14-.37s.14-.37.23-.55a1.35,1.35,0,0,1,.14-.33s0-.14.09-.18a2.73,2.73,0,0,0,.14-.33l0-.09.78-1.44c.05,0,.05-.14.1-.18v0l0-.09c.1-.14.19-.32.28-.46a6.27,6.27,0,0,1,.37-.65c.23-.42.42-.79.56-1a.48.48,0,0,1,.14-.23,7.06,7.06,0,0,1-.65-.41,21.25,21.25,0,0,0-1.9-1l-.79-.37c-.32-.14-.69-.28-1.07-.42-.09,0-.18,0-.27-.09L68,83.91l-.65-.14c-.18,0-.37,0-.55-.09a5782884943091.53,5782884943091.53,0,0,0-.56-.1c-.23,0-.51,0-.74,0h-.37a8.08,8.08,0,0,0-1.58.14h-.09a13.8,13.8,0,0,0-2.69.69c-.28.09-.55.23-.88.37a.44.44,0,0,1-.23.09l-.28.14A13.5,13.5,0,0,0,57,86.55H57a12,12,0,0,0-1.71,1.71l-.42.56a6.89,6.89,0,0,0-.46.69,11.93,11.93,0,0,0-.79,1.35,2.11,2.11,0,0,0-.23.51s0,0,0,.09a12.92,12.92,0,0,0-1,3.52c-.05.23-.05.47-.09.74v.1c0,.18,0,.37,0,.6v.83a2.12,2.12,0,0,0,0,.56V98c0,.14,0,.28,0,.42v0a.42.42,0,0,0,.05.24c0,.13,0,.27,0,.37s0,.18,0,.27.05.24.09.37a.59.59,0,0,0,.1.28v0l0,.09v.09l0,.1c.05.09.05.18.09.27s0,.24.09.33a.61.61,0,0,1,.1.32l0,.1c.05.09.05.14.1.23s.09.18.14.32l.13.28c.05.05.05.09.1.14s0,.09.09.14l.14.28a1.29,1.29,0,0,0,.18.32,1.36,1.36,0,0,0,.14.23c0,.09.14.23.19.33s.09.14.14.23a1.28,1.28,0,0,0,.23.32.62.62,0,0,0,.14.19c.09.09.14.23.23.32s.09.14.14.19.18.23.28.32a.84.84,0,0,1,.14.19c.09.09.18.23.27.32l.14.14a2.53,2.53,0,0,0,.33.32l.14.14.32.33s.09.09.14.09.23.19.37.33.09,0,.14.09.23.18.37.28.09,0,.09.09l.42.28.09,0,.42.28.09,0c.14.09.33.18.47.28l.09,0a2,2,0,0,0,.46.23l.09.05.51.23,0,0a5.06,5.06,0,0,1,.51.23h0c.18,0,.37.14.55.18h.05c.09,0,.18,0,.28.1s.18,0,.32.09h0l.6.14a2.49,2.49,0,0,0,.6.09c.65.09,1.3.14,2,.19H66a2.85,2.85,0,0,0,.65,0c.28-.05.6-.05.93-.09l.78-.14a8.55,8.55,0,0,0,1.21-.33,8.27,8.27,0,0,0,2.87-1.29s-.42-1.86-.74-3.71a1,1,0,0,1-.18-.46"/><path class="cls-5" d="M101.23,35.16l-.14-1.85.93-2,.37-.09a8.58,8.58,0,0,0-2.18-.6,16.94,16.94,0,0,0-6.21.6,40.39,40.39,0,0,0-8,3.1,83.29,83.29,0,0,0-18.4,12.93c-2.17,1.95-4.17,4-6,6S58.14,57.13,56.66,59a54.53,54.53,0,0,0-6.77,11.16,23.65,23.65,0,0,0-1.8,6.17,8.9,8.9,0,0,0,.09,3.38c.09.32.18.55.28.83A5,5,0,0,0,49.34,82L53.09,86l.42.41,0,0a1.62,1.62,0,0,1,.37-.37l0,0,.14-.14c.09-.14.23-.23.32-.37a.75.75,0,0,1,.24-.18c.09,0,.13-.14.23-.19l.09-.09c.09-.05.14-.14.23-.19s.23-.18.33-.28.13-.09.18-.14h.05c.14-.09.23-.18.37-.27a1,1,0,0,0,.23-.19c.14-.09.23-.18.37-.28s.14-.09.23-.14a2.18,2.18,0,0,1,.42-.23c.09,0,.14-.09.23-.14s.28-.14.42-.23.14-.09.23-.14l.09,0a41.13,41.13,0,0,1,4-8A76.42,76.42,0,0,1,70.47,64a89.75,89.75,0,0,1,6.67-6.72,99.87,99.87,0,0,1,9.45-7.6c2.13-1.48,4.22-2.82,6.26-4,.18-.09.37-.23.6-.33.55-.32,1.06-.6,1.62-.88,1.16-.6,2.32-1.15,3.43-1.62l-.56-.65-.09-.09-.7-.79-3.84-4.63,0-3.34,0,0L96,32.52l5.19,2.64"/><path class="cls-6" d="M146,113a2.4,2.4,0,0,0-.28-1.35s0-.09,0-.09l0,0-.14-.14a1.91,1.91,0,0,0-.33-.27A.7.7,0,0,0,145,111a2.64,2.64,0,0,0-.79-.23,3.45,3.45,0,0,0-.74,0h-.37v.09s.05.09.05.19,0,.09,0,.09.09.37.13.56a.45.45,0,0,1,0,.14v0a7.24,7.24,0,0,1-1.35,2,3.59,3.59,0,0,1-.46.51c-2.32,2.41-7.32,5.8-17.88,7.7a36.63,36.63,0,0,1-9.69.18c-4.17-.51-7.27-1.85-8.76-3.66-.13-.14-.23-.32-.37-.46s-.14-.24-.23-.37,0-.1-.09-.14a7.37,7.37,0,0,1-.88-3.48,6.53,6.53,0,0,1,1.2-3.8,4.51,4.51,0,0,1,2.37-1.76,3.84,3.84,0,0,1,1.48-.18,1.9,1.9,0,0,1,.42,0c.32,0,.83.1,1.43.19a.33.33,0,0,1,.19,0,48.71,48.71,0,0,0,8.94.33A39.16,39.16,0,0,0,144,98.83v0a3.57,3.57,0,0,0-.83-2.64,4.79,4.79,0,0,0-.46-.42c-.1-.09-.24-.14-.33-.23a1.82,1.82,0,0,1-.32-.18l-.42-.28v0a1.07,1.07,0,0,0-.19-.28,22.93,22.93,0,0,0-6.3-6,6.11,6.11,0,0,0-.92-.6c-2.55-1.58-2.92-2.09-2.69-6.3.09-1.53.23-3.52.42-6.26,0-.37,0-.69,0-1V73.16c0-.23,0-.47,0-.65a.56.56,0,0,0,0-.28c-.05-.23-.05-.46-.09-.69s-.05-.24-.05-.33a1.25,1.25,0,0,0-.09-.37c0-.09,0-.23-.1-.32a1.58,1.58,0,0,1-.09-.42s0-.09,0-.14-.05-.09-.05-.14v0l0-.14a.83.83,0,0,1-.09-.28v0l-.05-.09,0-.09a5.06,5.06,0,0,0-.23-.51l0-.14c-.09-.14-.19-.33-.28-.46l0,0-.05,0c-.09-.09-.14-.18-.23-.28l-.1-.13a1.91,1.91,0,0,0-.27-.33l-.37-.37a2.18,2.18,0,0,0-.42-.23.16.16,0,0,0-.14,0l-.28-.14s-.09,0-.14,0-.18,0-.23-.1a1,1,0,0,0-.18,0c-.1,0-.14,0-.24,0h-1a.16.16,0,0,0-.14,0,.18.18,0,0,0-.14,0,1.09,1.09,0,0,0-.33.1h-.09l-.79.28-.09,0a2.52,2.52,0,0,1-.32.14l-.14,0-.28.14-.14.09-.28.14-.14.09c-.09.05-.18.14-.28.19l-.09,0c-.09.09-.23.14-.32.23l-.05,0a1.49,1.49,0,0,1-.37.23c-.23.14-.46.33-.69.46s-.38.28-.61.42l-.09,0a4.44,4.44,0,0,1-.6.37l-.09,0c-.19.13-.42.23-.61.37l-.09,0a3.3,3.3,0,0,1-.65.33l-.09,0-.65.28-.09,0c-.23.09-.47.14-.7.23h0l-.75.14c-.41,0-.88.09-1.29.09a17.43,17.43,0,0,1-2.13-.14l-.7-.14c-.09,0-.18,0-.23,0l-1.85-.42c-.28,0-.51-.14-.79-.19l-1.3-.27a2.14,2.14,0,0,1-.23,0s-.14,0-.19,0-.18,0-.27,0-.19,0-.28,0h-.09a1.92,1.92,0,0,1-.24,0,2.61,2.61,0,0,0-.6-.09.28.28,0,0,1-.18,0c-.14,0-.28,0-.42,0a.39.39,0,0,1-.23,0c-.14,0-.23,0-.37,0H103.6c-.24,0-.42,0-.65,0h-.19c-.14,0-.28,0-.42,0h0c-.09,0-.14,0-.23,0s-.28,0-.42.09a2.07,2.07,0,0,0-.23,0,1.29,1.29,0,0,1-.42.1.44.44,0,0,0-.23.09c-.14,0-.33.09-.46.14s-.14,0-.19.09l-.65.28a14.82,14.82,0,0,0-4.45,4c-.41.56-.78,1.12-1.11,1.67a14.53,14.53,0,0,0-.93,1.9c-.09.19-.13.37-.23.56s-.23.65-.32,1c0,.05,0,.09-.05.09l-.28,1.16c-.09.42-.13.79-.18,1.21a2.81,2.81,0,0,0,0,.65,12.92,12.92,0,0,0,0,1.76v.13a1.67,1.67,0,0,0,0,.47c0,.42.09.83.18,1.25a1.3,1.3,0,0,1,.1.46c0,.14,0,.28.09.42a10.63,10.63,0,0,0,1.2,2.87,16.38,16.38,0,0,0,7.37,6.35c.88.37,1.81.74,2.78,1.07l-.09.09-.6.14c-.33.09-.74.23-1.16.37s-1,.37-1.58.6a18.19,18.19,0,0,0-4.63,2.69c-.19.14-.37.32-.56.46a9.14,9.14,0,0,0-.88.88l-.09.09-.14.14c-.09.14-.23.24-.32.37l-.14.14a3.6,3.6,0,0,0-.37.56c-.14.18-.23.37-.37.56a9.74,9.74,0,0,0-1.25,5.6v-.09a.19.19,0,0,1,0-.14v0s0-.09,0-.18v0a2.07,2.07,0,0,0,0-.23c0-.09,0-.14.1-.23v-.05c0-.09,0-.18.09-.28v0c0-.09,0-.19.09-.28v0a1.39,1.39,0,0,0,.14-.32l0,0a1,1,0,0,1,.18-.32c.1-.19.19-.33.28-.51s.09-.14.14-.19l0,0,.27-.42c.1-.09.19-.23.28-.32l.1-.1c.09-.09.13-.18.23-.23l.09-.09a2,2,0,0,0,.32-.33s-2,4.55-1.11,8.11v-.69a.56.56,0,0,1,0-.28.68.68,0,0,1,0-.28v0c0-.1,0-.24,0-.33v-.09c0-.14,0-.23.09-.37v0a1.38,1.38,0,0,0,.1-.37s0-.09,0-.14l0-.09c0-.09.09-.23.14-.32a1.75,1.75,0,0,1,.23-.42.14.14,0,0,1,0-.09l.27-.42s-.09,1.11-.09,2.45a2.81,2.81,0,0,0,0,.65,1.5,1.5,0,0,0,0,.42,18.11,18.11,0,0,1,.75-4,18.11,18.11,0,0,0-.75,4,20.71,20.71,0,0,0,0,2.83A19.43,19.43,0,0,0,95.3,121a6.49,6.49,0,0,1,.28-4.17l.28.55c.09.6.18,1.48.37,2.46.18,1.62.92,6.48,4.26,9.87A5.87,5.87,0,0,1,99.42,126c.14.28.28.51.38.74a22.65,22.65,0,0,0,2.91,4.4s-1-1.9-.74-2.31c0,0,3.25,4,4.27,4.4L104.89,131l0,0c4.68,3.43,11.16,4.68,19.13,2.45a36.89,36.89,0,0,0,4.27-1.48c.88-.37,1.76-.83,2.64-1.3l.14-.09c.6-.32,1.2-.69,1.8-1.07s.93-.6,1.35-.88c.74-.51,1.48-1.06,2.22-1.66,0,0,.09-.1.14-.1a25.68,25.68,0,0,0,2-1.9,27.43,27.43,0,0,0,2.23-2.64l0,0a5.3,5.3,0,0,0,.47-.65l0,0,.14-.23.65-.93.14-.23a3.26,3.26,0,0,1,.32-.51c.1-.14.14-.23.23-.37a1.8,1.8,0,0,0,.24-.42c.13-.23.27-.51.41-.74l.14-.28.28-.55L144,117l.05-.09c.09-.23.23-.47.32-.7v0a9,9,0,0,0,1-1.07s.1-.09.1-.14A3.48,3.48,0,0,0,146,113M71.11,101.19c-.13,0-.27.23-.46.46a1.69,1.69,0,0,0-.18.33,15,15,0,0,0-.79,1.9,10.38,10.38,0,0,0,.09-1.11v-.14c0-.37.09-.79.14-1.16v-.14a12.54,12.54,0,0,1,.23-1.3.32.32,0,0,1,0-.18v0a.19.19,0,0,1,0-.14c0-.09,0-.14,0-.23,0-.32.14-.65.19-1s.09-.56.13-.79v-.09s0-.1.05-.1v-.09s0-.14,0-.18a.18.18,0,0,1,0-.14,1.4,1.4,0,0,1,.05-.23s0-.14,0-.19a2.07,2.07,0,0,1,0-.23.16.16,0,0,1,.05-.14s0-.09,0-.09,0-.14,0-.19v-.14l-.09.09c-.09,0-.14.14-.23.19l-.1.09a1.78,1.78,0,0,0-.23.28l0,0-.28.41,0,0s0,0,0,.09l-.14.28v.09c0,.14-.14.28-.19.42-.14.37-.28.74-.37,1.07-.05.09-.05.23-.09.27a3.26,3.26,0,0,0-.09.42v0a1.17,1.17,0,0,1,0-.37c0-.23,0-.51,0-.74a2.42,2.42,0,0,1,.09-.6.27.27,0,0,1,0-.19c0-.09,0-.18,0-.28s.05-.18.05-.27v-.14c0-.1,0-.23,0-.33v-.32a.19.19,0,0,1,0-.14,1.59,1.59,0,0,0,.1-.46v0c0-.09,0-.23.09-.32v0c0-.23.14-.46.18-.7v-.09a.16.16,0,0,1,0-.14c.09-.37.23-.74.32-1.06v0c.1-.28.24-.6.33-.88v0c0-.14.09-.23.14-.37s.14-.37.23-.55a1.35,1.35,0,0,1,.14-.33s0-.14.09-.18a2.73,2.73,0,0,0,.14-.33l0-.09s-.14,0-.19-.09h0l-.09,0a13.28,13.28,0,0,0-1.34-.51h-.09a6.35,6.35,0,0,0-.93-.18c-.19,0-.37,0-.56,0h-.46c-.23,0-.46,0-.7,0a.49.49,0,0,0-.23,0c-.09,0-.23,0-.32,0a.16.16,0,0,0-.14,0c-.09,0-.14,0-.23,0l-.47.14s-.13.05-.18.05-.42.14-.6.23-.14.09-.24.09l-.27.14-.1,0a.85.85,0,0,0-.27.18.82.82,0,0,0-.28.19c-.09,0-.19.14-.28.18a2.31,2.31,0,0,1-.19.14c-.13.14-.32.28-.46.42l-.23.23c-.14.14-.23.28-.37.42l0,0c0,.1-.14.14-.18.24l-.14.13a9.52,9.52,0,0,0-.65,1.07C61,93.92,61,94,61,94s-.14.37-.23.55-.05.14-.1.24-.14.37-.18.6v.18c-.05.14-.05.28-.1.42a.47.47,0,0,1,0,.23.37.37,0,0,1,0,.23v.19a4.09,4.09,0,0,0,0,.7,2.05,2.05,0,0,0,0,.55V98c0,.1,0,.19,0,.28a8.22,8.22,0,0,0,.24,1.07c.09.28.18.51.27.74a7.42,7.42,0,0,0,.7,1.3,7.51,7.51,0,0,0,2.18,2.13,6.47,6.47,0,0,0,1.57.74,6.69,6.69,0,0,0,1.67.37c.14,0,.28,0,.37,0H68c.19,0,.37,0,.56,0a.72.72,0,0,0,.32-.05l.79-.14h.05c.09,0,.18,0,.32-.09a5.15,5.15,0,0,0,.93-.37l0,0a.88.88,0,0,1,.23-.09,21.57,21.57,0,0,1-.33-2.45c.23-.1.23-.14.23-.19"/><path class="cls-7" d="M102.39,35.72l.14.09Z"/><path class="cls-8" d="M143.21,111.11s0-.1-.05-.1a.39.39,0,0,1,0-.18,6.63,6.63,0,0,0-.79-1.72,4.47,4.47,0,0,0-.6-.78l.14-.56a4.08,4.08,0,0,0,.09-.69,6.67,6.67,0,0,0-.6-3.71,2.73,2.73,0,0,0-.14-.33l-.79.56a40.47,40.47,0,0,1-16.68,6.49,48.14,48.14,0,0,1-13.16.14l.09,0a4.42,4.42,0,0,0-3.52,3l0,0-.23,1.76a5.47,5.47,0,0,0,2.41,4.68,19.79,19.79,0,0,0,4.63,1.11,37.38,37.38,0,0,0,10.06-.27,42.62,42.62,0,0,0,16.17-6.4,25.31,25.31,0,0,0,2.91-2.32l.05,0,0,0c0-.32,0-.51,0-.69"/><path class="cls-9" d="M134.18,88.22c-2.55-1.58-2.92-2.09-2.69-6.3.09-1.53.23-3.53.42-6.26,0-.37,0-.69,0-1V73.3c0-.23,0-.47,0-.65a.56.56,0,0,0,0-.28c-.05-.23-.05-.46-.09-.69s-.05-.24-.05-.33a1.25,1.25,0,0,0-.09-.37c0-.09,0-.23-.1-.32a6.34,6.34,0,0,0-1.29-1.44l-.1-.09-.09,0h0l-.24-.14a.82.82,0,0,1-.23-.14,6.79,6.79,0,0,0-2.5-.88,8.73,8.73,0,0,0-1.53-.09c-.23,0-.51,0-.74,0a17.19,17.19,0,0,0-2,.41c-.23.14-.47.33-.7.47a6.23,6.23,0,0,1-.6.41l-.09,0a4.44,4.44,0,0,1-.6.37l-.1,0c-.18.14-.41.23-.6.37l-.09,0a2.84,2.84,0,0,1-.65.33l-.09,0-.65.28-.1,0c-.23.09-.46.14-.69.23h0l-.74.14a11.2,11.2,0,0,1-1.3.09,15.75,15.75,0,0,1-2.13-.14l-.69-.14a2.07,2.07,0,0,1-.23,0l-1.86-.42c-.27,0-.51-.14-.78-.18l-1.3-.28a1.7,1.7,0,0,1-.23-.05,8.9,8.9,0,0,0-1.07.09h-.09a14.87,14.87,0,0,0-3.15.75s-.1,0-.19,0-.32.14-.51.19l-.65.27A17.49,17.49,0,0,0,98.5,74c-.56.46-1.07,1-1.58,1.48a20.58,20.58,0,0,0-2,2.5c-.05,0-.05.1-.09.14A12.75,12.75,0,0,0,94,79.6c-.09.18-.18.37-.27.51v0a14.44,14.44,0,0,0-.7,1.77S93,82,93,82s0,.18-.09.28a6,6,0,0,0-.23.83,5.69,5.69,0,0,0-.19.88s0,.14,0,.19-.05.37-.09.51c-.1.64-.14,1.29-.19,1.94v.47A10.92,10.92,0,0,0,93.36,90a16.36,16.36,0,0,0,7.36,6.35c.88.37,1.81.74,2.78,1.06l0,0,0,0,.37-.28s.09,0,.13-.09l.42-.28s.09,0,.14-.09l.42-.28s.09,0,.14-.09a3.71,3.71,0,0,1,.46-.28s.09,0,.14-.09l.46-.28s.1,0,.14-.09.33-.19.46-.28.14-.05.19-.09.32-.19.46-.28a.33.33,0,0,1,.19-.09,3.43,3.43,0,0,1,.51-.28.44.44,0,0,1,.23-.09,2.35,2.35,0,0,1,.51-.24c.09,0,.14-.09.23-.09l.51-.23.28-.14.51-.23a2,2,0,0,1,.32-.14c.19,0,.33-.14.51-.19l.33-.13c.18-.05.32-.14.51-.19l.37-.14c.18,0,.32-.14.51-.18l.41-.14a2.32,2.32,0,0,0,.47-.19l.46-.14c.14,0,.33-.09.46-.14a3.63,3.63,0,0,0,.51-.14c.14,0,.28-.09.47-.13a5.71,5.71,0,0,0,.6-.19c.09,0,.19,0,.28-.09.74-1.9,3-6.63,6.86-7.14.41,0,.78-.09,1.15-.09H125a6,6,0,0,1-.09-.88c-.14-2,.51-3.75,1.39-3.8.69,0,1.25,1,1.34,1.3a6.13,6.13,0,0,1,.51,2.27,8,8,0,0,1-.18,2.18c.09.09.14.18.23.23a5.58,5.58,0,0,1,1,3.7c.33,0,.7,0,1.07-.09a.58.58,0,0,0,.28,0h.18c.42,0,.88-.09,1.34-.09,1-.09,2-.14,3.11-.18-.6-.33-1-.51-1-.51m9.68,28.54a28.75,28.75,0,0,1-5.19,3.66c-.88.46-1.76.88-2.59,1.25a35.38,35.38,0,0,1-5.33,1.81,27.88,27.88,0,0,1-6,.88,11.17,11.17,0,0,0,6.07.92,10.63,10.63,0,0,0,2-.32c-.05.7-.14,1.34-.23,2a10,10,0,0,1-.56,1.86v0a10.28,10.28,0,0,1-1,1.86,2.2,2.2,0,0,1-.14.18l.14-.09c.6-.33,1.21-.7,1.81-1.07s.93-.6,1.34-.88c.74-.51,1.49-1.06,2.23-1.67,0,0,.09-.09.14-.09a25.68,25.68,0,0,0,2-1.9,28.8,28.8,0,0,0,2.22-2.64l.05,0a6.38,6.38,0,0,0,.46-.64l.05,0,.14-.23c.23-.33.41-.6.65-.93,0-.09.09-.14.14-.23a2.86,2.86,0,0,1,.32-.51l.23-.37a1.75,1.75,0,0,0,.23-.42c.14-.23.28-.51.42-.74l.14-.28.28-.55.14-.28,0-.09c.1-.24.23-.47.33-.7a.85.85,0,0,0-.42.28M101.6,98.09c-.46.14-1,.37-1.57.6a18.24,18.24,0,0,0-4.64,2.69c-.18.14-.37.32-.55.46a8.12,8.12,0,0,0-.88.88l-.1.09-.13.14c-.1.14-.24.23-.33.37l-.14.14a3.6,3.6,0,0,0-.37.56c-.14.18-.23.37-.37.55a9.79,9.79,0,0,0-1.25,5.61v-.09a.16.16,0,0,1,0-.14v0a1,1,0,0,0,0-.18v0a2.14,2.14,0,0,0,0-.23c0-.09,0-.14.09-.23v0a2.29,2.29,0,0,0,.09-.28v0c0-.1,0-.19.1-.28v0c0-.09.09-.18.14-.32l0,0a1.35,1.35,0,0,1,.19-.32c.09-.19.18-.33.28-.51l.13-.19,0,0,.28-.42c.09-.09.18-.23.28-.33l.09-.09c.09-.09.14-.18.23-.23l.09-.09a2.06,2.06,0,0,0,.33-.33s-2,4.54-1.11,8.11V113a.66.66,0,0,1,0-.28.56.56,0,0,1,0-.28v0c0-.09,0-.23,0-.32V112c0-.14,0-.23.09-.37v-.05a1.77,1.77,0,0,0,.09-.37s0-.09,0-.14l0-.09c0-.1.1-.23.14-.33a2.12,2.12,0,0,1,.23-.41.17.17,0,0,1,.05-.1l.28-.41s-.09,1.11-.09,2.45a3.55,3.55,0,0,0,0,.65,1.21,1.21,0,0,0,0,.42,18.12,18.12,0,0,1,.74-4c.09-.33.23-.7.32-1,0,0,.05-.1.05-.14.14-.33.23-.6.37-.93,0,0,0-.09.09-.18.14-.28.28-.61.42-.88a.17.17,0,0,0,0-.14c.32-.61.65-1.16,1-1.67,0,0,0-.09.09-.14s.28-.37.42-.6c0-.05,0-.1.09-.14s0-.09.1-.14c.18-.23.32-.46.5-.7,0,0,0-.09.1-.09.18-.23.37-.46.55-.65s.47-.51.7-.78a3.51,3.51,0,0,1,.51-.51l.18-.19c.37-.37.74-.74,1.12-1.07a21.6,21.6,0,0,1,2.13-1.71l-.61.14a6.55,6.55,0,0,1-1.11.42"/><path class="cls-9" d="M128.29,88a1.55,1.55,0,0,0,0-.28c-.19-.64-.84-2.22-3.39-2A4.49,4.49,0,0,0,121,89a.76.76,0,0,0,0,.23l.09,0a1.35,1.35,0,0,1,1.58.14,2.68,2.68,0,0,1,.65.6,1.05,1.05,0,0,1,.14,1l-.14.14a2.05,2.05,0,0,0,.28.09c.74.23,2.82.65,3.93-.79,0-.09.1-.14.14-.23-.23-.09-.32-.42-.32-.83a2.9,2.9,0,0,1,.09-.61c.14-.55.56-.88.88-.74M114.9,107.86c-1.76.37-3.29.65-4.45.84a.33.33,0,0,1,.19,0,48.71,48.71,0,0,0,8.94.33A39.16,39.16,0,0,0,144,99v0a3.57,3.57,0,0,0-.83-2.64,4.79,4.79,0,0,0-.46-.42s0,0-.1,0c-.23-.14-.41-.24-.6-.37l-.42-.28v0a15.11,15.11,0,0,1-1.76,2.09,10,10,0,0,1-.74.69,31.54,31.54,0,0,1-8.43,5.19,80.72,80.72,0,0,1-15.71,4.77M71,95.77c-.1,0-.14.14-.24.18l-.09.1a1.18,1.18,0,0,0-.23.28l0,0-.27.42,0,0s0,0,0,.09l-.14.28v.09c0,.14-.14.28-.18.42-.14.37-.28.74-.37,1.06,0,.09,0,.23-.1.28s-.09.37-.09.42v0a.92.92,0,0,1,0-.37c0-.24,0-.51,0-.75a2.59,2.59,0,0,1,.1-.6.3.3,0,0,1,0-.18c0-.1.05-.19.05-.28s0-.19,0-.28v-.14c0-.09,0-.23,0-.32v-.33a.17.17,0,0,1,.05-.14,1.5,1.5,0,0,0,.09-.46v0c.05-.09.05-.23.09-.32v-.05c0-.23.14-.46.19-.69v-.09a.16.16,0,0,1,0-.14c.09-.37.23-.74.32-1.07v0c.09-.27.23-.6.32-.88v0c.05-.14.1-.23.14-.37s.14-.37.24-.56a1.14,1.14,0,0,1,.13-.32s0-.14.1-.19.09-.18.14-.32l0-.1s-.14,0-.18-.09h0l-.09,0a10.78,10.78,0,0,0-1.35-.51h-.09a6,6,0,0,0-.92-.19c-.19,0-.38,0-.56,0h-.46c-.24,0-.47,0-.7,0a.39.39,0,0,0-.23,0c-.09,0-.23,0-.33,0a.15.15,0,0,0-.13,0c-.1,0-.14,0-.24,0l-.46.14s-.14,0-.18,0c-.19.09-.42.14-.61.23s-.14.1-.23.1l-.28.13-.09,0a1.07,1.07,0,0,0-.28.19,1,1,0,0,0-.28.18c-.09,0-.18.14-.27.19a2.31,2.31,0,0,0-.19.14c-.14.14-.32.27-.46.41l-.23.23c-.14.14-.24.28-.37.42l-.05,0c0,.09-.14.14-.19.23l-.14.14a7.46,7.46,0,0,0-.64,1.06s0,.1-.1.14c-.09.19-.14.37-.23.56a2.18,2.18,0,0,1-.09.23s.05.09.05.14.09.32.13.51v.09c.05.14.14.33.19.47a8.55,8.55,0,0,0,.6,1.25c.05,0,.05.09.09.14v0l0,0a4.17,4.17,0,0,0,.42.69c.23.33.42.56.55.75l.1.09a0,0,0,0,0,0,0l.1.1a1.4,1.4,0,0,0,0-.23A7.61,7.61,0,0,1,62.77,97v-.09a7.18,7.18,0,0,1,0-1.06l.14.41c0,.19.14.37.18.56v.09a9.9,9.9,0,0,0,.93,2,9,9,0,0,0,.93,1.34s.09.09.09.14l.09.09A8.74,8.74,0,0,1,65,98.55V98a3.45,3.45,0,0,1,0-.74,8.83,8.83,0,0,0,.37,1.2v0a13.69,13.69,0,0,0,1.53,2.92l0,0a1.07,1.07,0,0,1,.19.28c.05,0,.09.09.09.14l.09.09,0,0v-.09c0-.1,0-.19,0-.28,0-.33-.09-.65-.13-.93s-.05-.42-.05-.6v-1c0-.23.05-.51.05-.74l.13.46a3.27,3.27,0,0,1,.14.33v0l0,0a2.93,2.93,0,0,0,.14.37,2.81,2.81,0,0,0,.32.65,5.28,5.28,0,0,0,.37.69,2,2,0,0,1,.19.33,3.89,3.89,0,0,1,.23.37,1,1,0,0,1,.19.28l0,0c0,.09.14.14.19.23s.09.1.09.14.14.19.19.19l0,0v-.13c.05-.38.1-.79.14-1.16v-.14a12.08,12.08,0,0,1,.23-1.3.3.3,0,0,1,0-.18v-.05a.16.16,0,0,1,0-.14c0-.09,0-.14,0-.23,0-.33.14-.65.19-1s.09-.56.14-.79v-.09s0-.1,0-.1v-.09s0-.14,0-.19a.15.15,0,0,1,0-.13,2.35,2.35,0,0,1,0-.24s0-.14,0-.18a2.07,2.07,0,0,1,0-.23.16.16,0,0,1,.05-.14s0-.1,0-.1,0-.13,0-.18v-.14l.24.14m56.15,19.37c.65-.23,1.21-.42,1.67-.6.88-.38,1.34-.65,1.34-.75s-.55,0-1.48.19c-.46.09-1,.18-1.71.37a8.49,8.49,0,0,1-1.07.19c-.37,0-.79.13-1.2.18-.84.14-1.76.23-2.78.32l-1.53.14c-.51,0-1.07,0-1.62.1a36.21,36.21,0,0,1-7.19-.51,15.93,15.93,0,0,1-4.35-1.53l0,0a4.42,4.42,0,0,1,3.52-3l-.09-.05h-.14c-.41,0-.74-.09-1.06-.14a4.39,4.39,0,0,1-.56-.09,2.65,2.65,0,0,1-.32,0,3.11,3.11,0,0,0-2.88,1.9l-.14.27a5.9,5.9,0,0,0-.46,1.86,5.13,5.13,0,0,0,1.21,3.75,7.75,7.75,0,0,0,3.19,2A5.44,5.44,0,0,1,107,115a21.85,21.85,0,0,0,4.31,1.2,30.08,30.08,0,0,0,7.51.42l1.67-.14c.55-.09,1.06-.14,1.57-.18,1-.19,1.9-.33,2.78-.51a10.14,10.14,0,0,0,1.21-.33,5.53,5.53,0,0,0,1.06-.32"/><path class="cls-2" d="M125,84.19a4.12,4.12,0,0,1,3,1.11,8,8,0,0,0,.19-2.18,6.55,6.55,0,0,0-.51-2.27c-.1-.37-.65-1.34-1.35-1.3-.88,0-1.53,1.76-1.39,3.8a4.81,4.81,0,0,0,.1.84m2.31,5.23a1.08,1.08,0,0,0,.33.84c.32.18.74-.19.92-.79,0,0,0-.09,0-.14.14-.56,0-1.11-.32-1.25s-.75.18-.93.79c0,.18,0,.37,0,.55m-6.3,1a2.23,2.23,0,0,0,.65.65,1.39,1.39,0,0,0,1.62.09l.14-.14a1.06,1.06,0,0,0-.14-1,1.65,1.65,0,0,0-.65-.6,1.42,1.42,0,0,0-1.57-.14.59.59,0,0,0-.14.19,1.08,1.08,0,0,0,.09,1m23,8.48h0m-.74,12.84a22.49,22.49,0,0,1-3,2.36,41.67,41.67,0,0,1-16.17,6.39,37,37,0,0,1-10.05.28,20.65,20.65,0,0,1-4.64-1.11,7.75,7.75,0,0,1-3.19-2,5.44,5.44,0,0,1-1.21-3.75,5.25,5.25,0,0,1,.46-1.86l.14-.27a3.11,3.11,0,0,1,2.88-1.9,1.2,1.2,0,0,1,.32,0,3.39,3.39,0,0,1,.56.09c.32.05.65.1,1.06.14h.14a47.74,47.74,0,0,0,13.16-.14,40.32,40.32,0,0,0,16.68-6.48l.79-.56L144,98.87A38.91,38.91,0,0,1,119.58,109a45.5,45.5,0,0,1-8.94-.32c-.09,0-.14,0-.19,0-.6-.09-1.06-.14-1.43-.18-.19,0-.33,0-.42,0a4,4,0,0,0-1.48.18,4.67,4.67,0,0,0-2.37,1.77,6.57,6.57,0,0,0-1.2,3.79,7.34,7.34,0,0,0,.88,3.48s0,.09.09.14l.23.37a5,5,0,0,0,.37.46c1.44,1.81,4.59,3.11,8.76,3.66a36.19,36.19,0,0,0,9.69-.18c10.56-1.9,15.56-5.33,17.88-7.69a5.16,5.16,0,0,0,.46-.51,9.4,9.4,0,0,0,1.35-2v0a.39.39,0,0,0,0-.14l0,.05"/><path class="cls-10" d="M109.66,75.15a4.69,4.69,0,0,0-1.06-.42l-.74-.14a.68.68,0,0,1-.28,0,10.92,10.92,0,0,0-2.32.09,2.59,2.59,0,0,0-.65.19,7.23,7.23,0,0,0-5,5,.39.39,0,0,0,0,.23c0,.23-.14.47-.18.65a10.86,10.86,0,0,0-.23,2c0,.74,0,1.2,0,1.2a19.73,19.73,0,0,1,3.43-5.1,12.48,12.48,0,0,1,4.68-3.1,10,10,0,0,1,2.36-.51m20.07-2.36,0-.1a3,3,0,0,0-.69-.64,3.61,3.61,0,0,0-2.74-.42,4.73,4.73,0,0,0-2.27,1.3,5.6,5.6,0,0,1,5.19.83c.23.19.51.37.74.6a6.35,6.35,0,0,1,.74.79,5,5,0,0,0-.78-2.18.75.75,0,0,0-.14-.18"/><path class="cls-2" d="M110,91.23c1-.28,2-.56,3.15-.84a9.51,9.51,0,0,0,.09-3.1c-.32-2.69-1.53-4.77-2.73-4.63s-1.9,2.45-1.58,5.14A9.19,9.19,0,0,0,110,91.23"/><path class="cls-11" d="M104.48,30.67l-2.51.56.51,4.54-6.62-3.39-2.74.84,0,0,8.06,9.18.09,0,.1,0,.74-.47a1,1,0,0,0,.28-.18,12.79,12.79,0,0,1,1.11-.65l-3.43-3.94,5.51,2.69.51-.28-.51-3.94,2.51,2.92h0c.23-.09.42-.23.65-.32l.09,0,.1-.05a.19.19,0,0,0,.09,0l.28-.14s0,0,0,0c.28-.14.61-.28.88-.42l-5.83-6.76"/><path class="cls-7" d="M102,31.36v0m0-.13.37-.1a8.58,8.58,0,0,0-2.18-.6,17.16,17.16,0,0,0-6.21.6,40.48,40.48,0,0,0-8,3.11,82.89,82.89,0,0,0-18.4,12.92c-2.17,2-4.17,4-6,6l7.51,9.27c2-2.23,4.21-4.45,6.62-6.63A94.72,94.72,0,0,1,85.34,48a76.15,76.15,0,0,1,9.13-5.51l-1.3-5.93,0-3.34,0,0,2.73-.84,5.33,2.74-.14-1.86.93-2"/><path class="cls-3" d="M102,31.23l-.93,2,.14,1.9,1.3.65Zm-1.9,5.88,5.56,2.73-2.13,1.21Zm5.56-1.53.51,3.94,2-1Z"/><path class="cls-8" d="M126.62,34.14h1a11.77,11.77,0,0,1,2.64.33.16.16,0,0,1,.14.05h.05l.09,0h.09c-.09,0-.18-.14-.27-.18a12.4,12.4,0,0,0-2.92-.75c-5-.64-10.75,1.21-14,2.51-.18.09-.37.14-.55.23s-.56.23-.84.37c-.46.18-.92.42-1.43.65a2.18,2.18,0,0,0-.23.09c-.28.14-.61.28-.88.42,0,0,0,0,0,0l-.28.14s-.09.05-.09.05h-.19l0,0a3.91,3.91,0,0,0-.65.32h0s-.09,0-.14.09h0a.17.17,0,0,0-.1,0c-.32.18-.64.32-1,.51s-.46.23-.69.37h0c-.19.09-.32.18-.51.28-.56.28-1.07.6-1.62.92,0,.05-.09.05-.19.1s-.09,0-.14.09-.09.05-.13.09l0,0c-.37.23-.74.42-1.11.65a.79.79,0,0,0-.28.18l-.74.47-.1,0-.09,0-2.08,1.39c-1.16.79-2.27,1.57-3.39,2.41-.13.09-.27.23-.41.32-2.92,2.18-5.7,4.54-8.39,6.95-2.83,2.6-5.56,5.24-8.11,7.93-1.39,1.39-2.59,2.64-3.52,3.66a29.93,29.93,0,0,0-3,3.42,4.86,4.86,0,0,0,.51-.46l-.75.88a188.24,188.24,0,0,1,14-13.53c3.05-2.64,6.25-5.19,9.54-7.55,1.44-1,2.92-2,4.4-3,.47-.33,1-.6,1.44-.93.23-.14.46-.28.74-.42a2.18,2.18,0,0,1,.42-.23c.28-.14.51-.32.79-.46a7.45,7.45,0,0,0,.74-.46c.14-.1.28-.14.41-.24l1-.55c.18-.09.37-.23.55-.33.61-.32,1.21-.65,1.86-1,0,0,.09,0,.14-.09l.27-.14c.14-.05.24-.14.37-.19s.1,0,.14-.09l.28-.14s0,0,0,0h0c.28-.14.56-.28.79-.38,0,0,.09,0,.14-.09l.28-.14.93-.41.23-.14s.09,0,.14,0a.58.58,0,0,1,.27-.09c.38-.14.7-.33,1.07-.47s.6-.27.93-.41c1.76-.74,3.38-1.35,4.91-1.86a36.28,36.28,0,0,1,7.64-1.39"/></svg>