<svg xmlns="http://www.w3.org/2000/svg" id="Layer_1" data-name="Layer 1" viewBox="0 0 200 200">
  <defs/>
  <defs>
    <style>
      .cls-2{fill:#051a3e}
    </style>
  </defs>
  <path fill="#0193fe" d="M100.2 128.1c-9-.3-16.3-3.7-21.8-10.8a2.9 2.9 0 00-2.1-1.2 25.6 25.6 0 01-12-4.8 26.6 26.6 0 01-10.1-13.6 27 27 0 01.7-19.6 2.1 2.1 0 000-1.8 27.4 27.4 0 0121.8-38 1.7 1.7 0 001.3-.7 27.2 27.2 0 0140.1-4 23.2 23.2 0 013.3 3.5 3.1 3.1 0 002.4 1.4 22.1 22.1 0 017 2 27.2 27.2 0 0116 20.2 26.4 26.4 0 01-1.8 15.7 2 2 0 000 1.7 25.3 25.3 0 012.2 13 27 27 0 01-15.6 22.6 23.1 23.1 0 01-7.8 2.3 3 3 0 00-2.2 1.3 26.5 26.5 0 01-18.4 10.5l-3 .3zm-20.9-20a28.3 28.3 0 002.8-.2 19 19 0 0016.3-20 7.5 7.5 0 00-.3-1.4l-1 .7a27.7 27.7 0 01-21.2 6A26.8 26.8 0 0161.8 87a5.7 5.7 0 00-.8-.5l-.3 1v.1a19 19 0 002.9 11.8c3.7 5.8 9.1 8.5 15.7 8.7zm60-42.7v-1.9a10.5 10.5 0 00-.3-1.2 18.5 18.5 0 00-9.3-13.5A19 19 0 00101.5 67a5 5 0 00.4 1l.8-.6a27.6 27.6 0 0120-6.2 26.8 26.8 0 0113.6 4.9l2.2 1.7c.5.4.7.3.7-.4v-2zm-78.6.1a15.9 15.9 0 001.3 7C65 79.2 70.3 83 77.7 84a18.4 18.4 0 0013.3-3.5l.4-.4a3 3 0 00-.6-.4 28.7 28.7 0 01-6.9-3.4 26.6 26.6 0 01-11.2-27 4.5 4.5 0 000-.8 4 4 0 00-.8.2c-6.4 3-11.2 9.4-11.1 16.9zm39.8-30a19.4 19.4 0 00-11 3.4 18.6 18.6 0 003 32 2.9 2.9 0 00.7.2v-.6a28.4 28.4 0 01-.2-8.8A26.7 26.7 0 0199.9 47a26 26 0 0110.6-7 5.1 5.1 0 00.7-.4 5.7 5.7 0 00-.6-.6 17.6 17.6 0 00-10.1-3.5zm36.8 55.3c0-5.5-1-9.1-3.2-12.2-4.4-6.3-10.4-9-18-8A16.5 16.5 0 00108 74c-.4.3-.4.4 0 .6h.4a27.2 27.2 0 0117.5 30.4 7.8 7.8 0 000 .8 4.3 4.3 0 00.8-.2c6.8-3.4 10.3-9 10.6-15zM100.5 119a17.7 17.7 0 0012.6-5.7 18 18 0 003.9-20 17.9 17.9 0 00-9.5-9.8 3.5 3.5 0 00-.7-.2 5.8 5.8 0 000 .6 28.4 28.4 0 01.2 9.2 26.5 26.5 0 01-6.9 14.3 25.7 25.7 0 01-10.7 7 4.5 4.5 0 00-.7.4l.6.5a18.9 18.9 0 0011.3 3.7z"/>
  <path d="M89.3 149.4v9c0 .7.1.6-.6.6H87c-.3 0-.4 0-.4-.4l-.1-1.4v-.2a1 1 0 00-.2.1l-1 1a5.8 5.8 0 01-4.2 1.2 7 7 0 01-5-2.2 6.8 6.8 0 01-1.7-4.2 8.4 8.4 0 01.3-3.3 6.3 6.3 0 015.3-4.4 6.9 6.9 0 015.3 1 9.3 9.3 0 01.9.8l.2.2a1.6 1.6 0 00.1-.3v-6.7c0-.6 0-.5.5-.5h2c.4 0 .5 0 .5.4v9.3zm-3.2 2.8a4.5 4.5 0 00-4.4-4.5 4.5 4.5 0 00-.2 9 4.4 4.4 0 004.5-4.5zM117.8 149.3v-9c0-.7 0-.5.6-.6h2c.3 0 .4.2.4.5v7.2a11 11 0 01.9-.8 6.5 6.5 0 014.7-1.5 7 7 0 014.4 1.8 6.6 6.6 0 012 4.5 7.3 7.3 0 01-1.6 5.6 7.1 7.1 0 01-9.2 1.2 11 11 0 01-1-1l-.2-.1a.9.9 0 000 .2l-.2 1.5c0 .2 0 .3-.3.3h-2.2c-.2 0-.3 0-.3-.3v-.4zm12.1 3a4.2 4.2 0 00-4.4-4.6 4.5 4.5 0 00-.3 9c2.8 0 4.7-1.7 4.7-4.4zM48.8 153.3h-5.1c-.7 0-.7 0-.5.6a3.6 3.6 0 003 2.6 6.2 6.2 0 005.4-1c.2-.3.3-.2.5 0l1.4 1.3c.2.2.2.3 0 .4a6.6 6.6 0 01-2.3 1.5 9.6 9.6 0 01-6.2.3 6.5 6.5 0 01-5-6.1 7 7 0 016.3-7.8 8.7 8.7 0 014 .4 5.8 5.8 0 014 4.8 14.3 14.3 0 01.2 2.4c0 .6.1.6-.5.6h-5.2zm-1.4-2.4h3.8c.5 0 .5 0 .4-.5a3.2 3.2 0 00-2.2-2.5 5.4 5.4 0 00-4 .1 3.9 3.9 0 00-2.1 2.4c-.2.5-.2.5.3.5zM168.7 153.3h-5.2c-.6 0-.6 0-.4.5a3.5 3.5 0 002.6 2.6 6.3 6.3 0 005.7-1h.5l1.4 1.4c.3.2.2.3 0 .5a7 7 0 01-2.2 1.4 9.4 9.4 0 01-7 0 6.2 6.2 0 01-4-5 7 7 0 011.8-6.5 7.4 7.4 0 015-2.2 8.4 8.4 0 013.5.5 5.9 5.9 0 014 5 14.7 14.7 0 01.1 2.2c0 .6 0 .6-.6.6zm-1.4-2.4h3.8c.5 0 .5 0 .4-.5a3.2 3.2 0 00-2.4-2.6 5.5 5.5 0 00-3.6.1 3.8 3.8 0 00-2.3 2.3c-.3.7-.2.7.4.7zM100.3 152.2v-6.3c0-.5 0-.5.5-.5h1.6c.6 0 .6-.1.6.5l.1 1v.3a1.3 1.3 0 00.3-.2 6.3 6.3 0 017-1.5 5.1 5.1 0 013.5 4.7c.2 1.8 0 3.6.1 5.4v3c0 .3 0 .5-.4.4h-2.1c-.4 0-.5 0-.5-.5v-6.8a3.8 3.8 0 00-.7-2.7 3.9 3.9 0 00-1.3-1 4 4 0 00-5.8 3.8v6.7c0 .5 0 .5-.5.5h-2c-.4 0-.5 0-.5-.4v-6.4zM57.5 152.1V146c0-.4.1-.6.5-.5h2c.2 0 .3 0 .3.3l.1 1.2a1.4 1.4 0 000 .2 2.1 2.1 0 00.3-.1 6.3 6.3 0 017-1.5 5.2 5.2 0 013.5 4.7v8.3c0 .4 0 .5-.4.5h-2c-.5 0-.5 0-.5-.4v-7.2a4 4 0 00-.6-2.2 3 3 0 00-1.4-1.2 4 4 0 00-5.8 3.7v6.8c0 .5 0 .5-.5.5h-2c-.4 0-.5 0-.5-.5v-6.4zM156.7 152.2v6.2c0 .6 0 .6-.5.6h-1.7c-.3 0-.5 0-.5-.4v-1a3 3 0 00-.2-.3 3.3 3.3 0 00-.3.2 5.9 5.9 0 01-2.3 1.5 6.2 6.2 0 01-6.8-1.7 6.4 6.4 0 01-1.3-4v-7.5c0-.4 0-.4.4-.4h2.1c.4 0 .4.1.4.4v7a3.7 3.7 0 00.9 2.6 3.8 3.8 0 001.3 1 4 4 0 005.6-3.7V146c0-.6 0-.6.6-.6h2c.3 0 .4.1.4.5v6.3zM31.8 159.4a8.7 8.7 0 01-6-2.2c-.4-.3-.4-.3 0-.8l1-1.2c0-.3.2-.4.5-.1a6.6 6.6 0 005 1.7 5.8 5.8 0 001.5-.3A1.4 1.4 0 0035 155a1.4 1.4 0 00-1.2-1.5 21.8 21.8 0 00-2.6-.4 10.3 10.3 0 01-3.3-1 3.5 3.5 0 01-.5-5.9 7 7 0 013.3-1.2 8.8 8.8 0 016.2 1.4c.4.3.4.3 0 .7l-.8 1c-.2.4-.4.4-.7.2a6.3 6.3 0 00-4.9-.8 2.8 2.8 0 00-1 .4 1.2 1.2 0 000 2.2 6.3 6.3 0 001.9.5l2.7.4a8.9 8.9 0 011.6.5 3.7 3.7 0 011.2 6 6 6 0 01-3.3 1.6l-1.8.2zM139.1 149.4v9c0 .7.1.6-.5.6h-1.8c-.7 0-.6 0-.6-.6v-18-.4c0-.1 0-.3.2-.3h2.4c.3 0 .3.1.3.4v2.6zM96.3 152.2v6.3c0 .4-.1.5-.5.5h-2.2c-.2 0-.3 0-.3-.3a2.4 2.4 0 000-.4v-12.6c0-.3.1-.3.3-.3H96l.2.2a1.3 1.3 0 010 .5zM94.9 139.3a1.7 1.7 0 011.8 1.8 1.8 1.8 0 01-3.7-.1 1.7 1.7 0 011.9-1.7z" class="cls-2"/>
</svg>
