<svg id="Layer_1" data-name="Layer 1" xmlns="http://www.w3.org/2000/svg" width="200" height="200" viewBox="0 0 200 200"><defs><style>.cls-1{fill:#202d51;}.cls-2{fill:#27346a;}.cls-3{fill:#2790c3;}.cls-4{fill:#1f264f;}</style></defs><path class="cls-1" d="M76.23,160.65c0,3.5-2.55,5.68-6.62,5.68h-2v3.8H63.87v-15h6C73.81,155.17,76.23,157.28,76.23,160.65Zm-3.7,0c0-1.34-1.07-2.22-2.7-2.22H67.58v4.64h2.25A2.41,2.41,0,0,0,72.53,160.65Z"/><path class="cls-1" d="M89,159.46v10.67H85.43v-.57a5.13,5.13,0,0,1-2.93.86,5.63,5.63,0,0,1,0-11.24,5.12,5.12,0,0,1,2.93.83v-.55Zm-3.56,7v-3.3a2.78,2.78,0,0,0-2.2-.95,2.6,2.6,0,0,0,0,5.19A2.8,2.8,0,0,0,85.43,166.44Z"/><path class="cls-1" d="M103.58,159.46l-6.65,15.76H93.19l2.22-5.31L90.2,159.46H94l3,6.62,2.79-6.62Z"/><path class="cls-1" d="M117.48,160.65c0,3.5-2.55,5.68-6.62,5.68h-2v3.8h-3.71v-15h6C115.06,155.17,117.48,157.28,117.48,160.65Zm-3.7,0c0-1.34-1.07-2.22-2.7-2.22h-2.25v4.64h2.25A2.41,2.41,0,0,0,113.78,160.65Z"/><path class="cls-1" d="M130.24,159.46v10.67h-3.56v-.57a5.13,5.13,0,0,1-2.93.86,5.63,5.63,0,0,1,0-11.24,5.12,5.12,0,0,1,2.93.83v-.55Zm-3.56,7v-3.3a2.78,2.78,0,0,0-2.2-.95,2.6,2.6,0,0,0,0,5.19A2.8,2.8,0,0,0,126.68,166.44Z"/><path class="cls-1" d="M136.25,154.51v15.62h-3.59V154.51Z"/><path class="cls-2" d="M135.24,33.71c-5.48-6.25-15.39-8.93-28.05-8.93H70.42a5.27,5.27,0,0,0-5.2,4.44l-15.31,97.1A3.15,3.15,0,0,0,53,130h22.7l5.7-36.16-.18,1.13a5.25,5.25,0,0,1,5.18-4.44H97.22c21.19,0,37.78-8.6,42.63-33.5.14-.74.27-1.46.37-2.16h0c1.45-9.2,0-15.46-5-21.13"/><path class="cls-2" d="M90.11,51.53a4.61,4.61,0,0,1,2-.45h28.83a59.9,59.9,0,0,1,9.5.69c.84.13,1.65.29,2.43.47s1.55.37,2.29.58l1.09.34a26.14,26.14,0,0,1,4,1.68c1.45-9.2,0-15.46-5-21.13-5.49-6.25-15.39-8.93-28.05-8.93H70.41a5.26,5.26,0,0,0-5.19,4.44l-15.31,97.1A3.15,3.15,0,0,0,53,130H75.73L87.55,55A4.63,4.63,0,0,1,90.11,51.53Z"/><path class="cls-3" d="M139.85,57C135,81.89,118.41,90.5,97.22,90.5H86.43a5.25,5.25,0,0,0-5.18,4.44l-7.09,45a2.76,2.76,0,0,0,2.72,3.19H96a4.62,4.62,0,0,0,4.55-3.89l.18-1,3.61-22.86.23-1.26a4.6,4.6,0,0,1,4.55-3.89H112c18.54,0,33.05-7.53,37.29-29.31,1.77-9.1.86-16.7-3.83-22a18.18,18.18,0,0,0-5.24-4c-.11.71-.23,1.42-.37,2.16Z"/><path class="cls-4" d="M135.15,52.82c-.74-.21-1.5-.41-2.29-.58s-1.59-.33-2.42-.47a60.12,60.12,0,0,0-9.51-.69H92.1a4.53,4.53,0,0,0-2,.45A4.58,4.58,0,0,0,87.56,55L81.43,93.81l-.18,1.13a5.25,5.25,0,0,1,5.18-4.44H97.22c21.19,0,37.78-8.6,42.63-33.5.15-.74.27-1.45.38-2.16a27.79,27.79,0,0,0-4-1.68l-1.09-.34"/></svg>