<svg id="Layer_1" data-name="Layer 1" xmlns="http://www.w3.org/2000/svg" width="200" height="200" viewBox="0 0 200 200"><defs><style>.cls-1{fill:#202d51;}.cls-2{fill:#072654;}.cls-3{fill:#3395ff;}</style></defs><path class="cls-1" d="M59.69,174.05l-2.84-4.33H54v4.33H50.29v-15h6.54c3.71,0,6.2,2,6.2,5.26a5,5,0,0,1-2.53,4.47L64,174.05ZM54,166.37h2.75c1.43,0,2.55-.79,2.55-2s-1.12-2-2.55-2H54Z"/><path class="cls-1" d="M75.92,163.38v10.67H72.36v-.57a5.1,5.1,0,0,1-2.93.86,5.63,5.63,0,0,1,0-11.25,5.1,5.1,0,0,1,2.93.84v-.55Zm-3.56,7v-3.3a2.77,2.77,0,0,0-2.2-.95,2.6,2.6,0,0,0,0,5.19A2.79,2.79,0,0,0,72.36,170.36Z"/><path class="cls-1" d="M87.74,165.27,82.9,171.1h4.84v3H77.79v-1.74l5-6H77.88v-3h9.86Z"/><path class="cls-1" d="M100.63,168.73a5.87,5.87,0,1,1-5.85-5.64A5.5,5.5,0,0,1,100.63,168.73Zm-3.35,0a2.52,2.52,0,1,0-2.5,2.64A2.47,2.47,0,0,0,97.28,168.73Z"/><path class="cls-1" d="M109.65,166.59a5.18,5.18,0,0,0-3.68,1.35v6.11h-3.58V163.38H106v1.15a5.33,5.33,0,0,1,3.68-1.33Z"/><path class="cls-1" d="M123.2,168.71a5.41,5.41,0,0,1-5.3,5.56,5.5,5.5,0,0,1-2.91-.79v5.68h-3.58V163.38H115v.55a5.5,5.5,0,0,1,2.91-.79A5.4,5.4,0,0,1,123.2,168.71Zm-3.5,0a2.54,2.54,0,0,0-2.51-2.67,2.79,2.79,0,0,0-2.2,1v3.35a2.76,2.76,0,0,0,2.2,1A2.52,2.52,0,0,0,119.7,168.71Z"/><path class="cls-1" d="M136.44,163.38v10.67h-3.56v-.57a5.1,5.1,0,0,1-2.93.86,5.63,5.63,0,0,1,0-11.25,5.1,5.1,0,0,1,2.93.84v-.55Zm-3.56,7v-3.3a2.77,2.77,0,0,0-2.2-.95,2.6,2.6,0,0,0,0,5.19A2.79,2.79,0,0,0,132.88,170.36Z"/><path class="cls-1" d="M151,163.38l-6.64,15.76h-3.74l2.22-5.31-5.22-10.45h3.79l3,6.62,2.8-6.62Z"/><polygon class="cls-2" points="111.77 74.26 92.55 147.85 45.58 147.85 55.1 111.65 111.77 74.26"/><polygon class="cls-3" points="154.43 20.84 121.06 147.85 98.17 147.85 120.7 61.84 86.16 84.61 92.31 61.96 154.43 20.84"/></svg>